<svg width="290" height="227" viewBox="0 0 290 227" fill="none" xmlns="http://www.w3.org/2000/svg">
<g clip-path="url(#clip0_12_73)">
<path d="M0.789474 0H274.789V227H0.789474V0ZM191.945 24.289C191.174 24.3586 190.406 24.3768 189.638 24.401V24.7733C189.52 24.7369 189.281 24.6643 189.163 24.628C188.603 25.1607 187.669 25.0003 186.967 25.306L186.928 25.539C186.535 25.5027 186.187 25.5905 185.891 25.7993C185.504 25.9325 185.116 26.0687 184.744 26.2321C183.598 25.7146 182.334 25.6782 181.14 25.3393C179.694 24.9004 178.142 25.1032 176.706 24.6098C174.674 23.9591 172.542 24.401 170.458 24.2618C168.934 24.1589 167.415 24.5221 165.897 24.286C164.067 24.0469 162.277 24.6159 160.472 24.7914C159.465 24.9125 158.433 24.8429 157.45 25.1213C154.943 25.8992 152.209 25.9295 149.85 27.1613C149.421 27.2218 148.976 27.2037 148.568 27.3641C146.155 28.2418 143.781 29.2164 141.44 30.2727C140.551 30.6389 139.761 31.1928 139.026 31.8042C138.346 32.4277 137.408 32.5457 136.55 32.7485C135.763 32.4156 135.007 31.9192 134.133 31.892C132.273 31.7921 130.41 31.8526 128.553 31.9283L128.55 32.3309C128.411 32.2824 128.13 32.1795 127.991 32.1281L127.982 32.5155C127.785 32.5367 127.398 32.5821 127.204 32.6033C126.724 33.2177 125.88 33.3932 125.426 34.0591C125.166 34.0651 124.912 34.0742 124.655 34.0803C124.691 33.0754 124.697 32.0675 124.598 31.0687C123.823 29.7188 122.713 28.5566 121.219 28.033C120.164 28.03 119.051 27.8514 118.065 28.3266C117.128 28.8381 116.087 29.5191 115.779 30.5996C114.847 31.208 115.419 32.4761 115.216 33.3841C114.983 34.0197 114.233 33.6929 113.743 33.7625V34.053C113.341 34.0439 112.942 34.0349 112.543 34.0288L112.549 34.389C112.328 34.3799 111.886 34.3557 111.669 34.3466L111.632 34.5918C110.365 35.4059 109.041 36.5985 108.814 38.1632C108.442 39.274 108.333 40.7087 108.88 41.7589C108.889 42.1857 108.892 42.6124 108.886 43.0422C107.553 42.9817 106.691 44.0743 105.914 44.9914C105.79 45.3728 106.016 46.0174 105.545 46.1748C104.61 46.2142 104.271 44.9339 103.334 44.9309C102.484 44.8189 101.631 44.9036 100.784 44.9611C100.104 45.5029 99.4779 46.1113 98.9184 46.7771C98.8851 47.782 98.8881 48.7899 98.9184 49.7947L99.2057 49.7675C99.3115 50.4424 99.9799 50.7844 100.388 51.2657C101.311 51.7378 102.39 51.7045 103.388 51.5562C104.256 51.2263 105.269 50.5423 105.327 49.5314L105.548 49.4799C105.669 49.2983 105.907 48.9351 106.028 48.7535C106.446 49.4164 106.909 50.164 107.695 50.4273L107.795 50.73C107.716 50.7633 107.562 50.8359 107.483 50.8722C107.879 51.1265 108.288 51.3716 108.696 51.6137C105.26 53.1089 102.233 55.3668 98.8639 56.9952C97.5998 57.5854 96.5383 58.5236 95.265 59.0987C92.5402 60.3578 89.8606 61.7168 87.2961 63.2755C82.4481 65.6333 77.8754 68.4965 73.3481 71.4051C71.9448 72.6612 70.2451 73.5087 68.8298 74.7556C67.1453 75.8573 65.8297 77.407 64.2026 78.5813C62.7026 79.6891 61.4687 81.0965 60.1501 82.401C57.643 85.1795 55.2477 88.0942 53.3606 91.3418C51.3162 94.6469 49.3262 98.1064 48.5368 101.959C48.1134 103.96 47.0701 105.924 47.4421 108.019C47.6296 109.266 47.2183 110.534 47.5237 111.775C47.935 113.509 47.8352 115.428 48.9361 116.929C49.1871 116.956 49.4411 116.987 49.6921 117.017C49.556 117.589 49.1175 118.255 49.6377 118.763C50.9412 120.504 51.8242 122.571 53.4906 124.027C55.284 126.061 57.4131 127.747 59.3638 129.623C60.9576 131.297 63.1411 132.241 64.7107 133.945C67.3267 136.118 70.3298 137.78 72.9519 139.947C77.4974 143.328 82.2273 146.515 86.3192 150.462C87.6469 151.963 89.2195 153.231 90.4353 154.832C91.2125 155.87 92.268 156.654 93.0785 157.662C94.6814 159.902 96.0725 162.29 97.6905 164.524C98.87 166.382 100.161 168.18 101.102 170.18C102.154 171.709 102.805 173.467 103.89 174.975C104.949 176.482 105.663 178.198 106.736 179.693C107.837 181.14 108.596 182.817 109.83 184.167C111.372 186.688 113.616 188.646 115.634 190.774C116.251 191.479 117.152 191.8 118.008 192.109C118.02 191.924 118.041 191.555 118.053 191.367C118.156 191.291 118.368 191.134 118.473 191.058C118.495 191.715 118.549 192.369 118.576 193.029L118.912 192.905C118.9 193.144 118.882 193.619 118.873 193.858L119.19 193.843C119.184 194.088 119.175 194.578 119.172 194.82L119.601 194.76C119.55 194.911 119.447 195.214 119.396 195.365L119.777 195.335C119.741 196.031 119.744 196.727 119.798 197.426C119.868 197.342 120.01 197.169 120.082 197.081C120.055 197.926 120.125 198.77 120.131 199.618L120.382 199.594C120.376 200.329 120.394 201.068 120.4 201.806L120.717 201.64C120.714 202.178 120.714 202.714 120.714 203.256L120.977 203.226C120.965 204.031 120.99 204.842 121.011 205.653L121.319 205.65C121.289 206.915 121.655 208.144 121.649 209.412C121.924 210.045 121.985 210.723 121.948 211.413L122.205 211.41C122.248 212.33 121.972 213.335 122.444 214.185C122.647 214.778 122.707 215.417 122.801 216.04C122.874 216.022 123.019 215.98 123.091 215.959C133.613 216.043 144.137 215.992 154.656 215.998C154.595 214.869 154.659 213.71 154.272 212.629L153.891 212.59C153.948 212.442 154.06 212.148 154.118 212L153.673 212.076C153.667 211.827 153.652 211.331 153.646 211.083L153.268 211.092C153.316 210.947 153.413 210.656 153.464 210.511H152.98C153.008 210.356 153.068 210.048 153.098 209.893L152.675 209.869C152.72 209.718 152.811 209.415 152.856 209.264L152.5 209.397C152.303 209.082 152.176 208.74 152.122 208.371L151.837 208.419C151.919 207.938 151.459 207.747 151.214 207.451C151.529 206.985 151.281 206.443 151.202 205.95C152.491 205.962 153.746 205.62 155.028 205.538C156.942 205.371 158.724 204.509 160.65 204.409C162.38 203.698 164.355 203.649 165.879 202.466C168.184 201.506 170.594 200.704 172.593 199.143C172.266 198.307 172.297 197.396 172.006 196.555C172.348 196.576 172.69 196.594 173.034 196.618C173.158 196.086 173.098 195.559 172.904 195.057L173.276 195.044C173.21 196.948 173.83 198.776 174.005 200.656C174.093 200.598 174.268 200.48 174.356 200.423C174.005 201.7 174.746 202.932 174.556 204.227L174.855 204.052C174.849 204.902 174.87 205.756 174.873 206.609L175.17 206.5C175.161 206.954 175.151 207.411 175.148 207.871L175.463 207.675C175.451 208.425 175.466 209.179 175.454 209.933L175.732 209.86C175.723 210.499 175.744 211.14 175.747 211.785L176.065 211.618C176.044 212.457 176.05 213.298 176.071 214.143L176.337 214.106C176.343 214.73 176.37 215.359 176.431 215.983L176.555 215.417L176.709 216.14L176.863 215.95C182.682 216.074 188.507 215.968 194.328 216.001C199.064 215.962 203.81 216.089 208.543 215.941L208.96 216.113C208.594 212.257 206.619 208.667 203.888 205.968C203.323 205.269 202.47 204.96 201.723 204.518C199.666 203.201 197.425 201.957 196.095 199.83C195.275 198.695 194.997 197.308 194.703 195.971C194.592 195.937 194.368 195.868 194.259 195.834C194.238 195.06 194.214 194.285 194.189 193.516L193.869 193.619C193.826 192.435 193.972 191.231 193.733 190.063C193.333 189.106 193.194 188.083 193.206 187.054C192.647 185.613 192.614 184.07 192.363 182.569L192.602 182.466C192.614 181.167 192.565 179.872 192.432 178.585C192.686 178.782 192.94 178.982 193.197 179.185C194.64 177.926 195.166 176.019 196.467 174.657C197.961 171.648 199.669 168.755 201.121 165.728C202.113 163.162 203.223 160.64 204.544 158.228C205.352 156.297 206.032 154.318 206.891 152.405C207.611 150.919 207.865 149.254 208.673 147.804C209.674 145.931 210.052 143.809 210.977 141.908C211.984 140.301 212.09 138.343 212.94 136.66C213.599 134.802 214.509 133.034 214.933 131.1C215.922 128.213 216.708 125.259 217.836 122.42C218.837 118.833 220.195 115.346 220.966 111.699C221.272 110.482 221.75 109.308 221.895 108.052C221.961 107.068 222.481 106.218 222.76 105.298C223.594 101.59 224.662 97.9157 224.958 94.1112C225.013 92.9217 225.273 91.7564 225.603 90.6154C226.05 89.1868 225.494 87.6946 225.805 86.2479C226.371 83.079 226.782 79.7769 226.023 76.608C225.648 74.9342 226.02 73.1636 225.406 71.5322C224.943 70.367 225.212 69.0746 224.762 67.9123C223.579 64.241 222.844 60.3669 220.894 56.9921C219.684 54.4316 218.393 51.9013 216.814 49.5435C215.961 48.1089 214.748 46.9406 213.865 45.5271C213.481 44.9157 213.067 44.3195 212.547 43.8201C209.368 40.6451 206.377 37.2341 202.703 34.613C200.301 32.9211 197.885 31.1535 195.106 30.1395C193.829 29.5645 192.716 28.6383 191.353 28.266C190.881 28.151 190.454 27.9089 190.019 27.7091L190.246 27.694L190.249 27.4034C190.651 27.3944 191.059 27.3853 191.467 27.3792L191.437 27.1038C192.351 26.9071 193.264 26.6831 194.21 26.7497L194.168 26.4743C195.039 26.3502 195.892 26.0959 196.781 26.1232C197.044 25.9567 197.307 25.7933 197.573 25.6268C198.251 25.5814 198.931 25.5451 199.615 25.5178L199.648 25.1455C199.79 25.1909 200.078 25.2848 200.22 25.3302L200.241 24.9882C201.72 25.079 203.072 24.3162 204.544 24.3374C204.544 24.1831 204.547 23.8743 204.551 23.72C200.791 23.6746 197.032 23.6746 193.276 23.7684V24.0438C192.831 24.0892 192.311 23.9651 191.945 24.289Z" fill="#F8FAF9"/>
<path d="M191.945 24.289C192.311 23.9651 192.831 24.0892 193.276 24.0438V23.7684C197.032 23.6746 200.791 23.6746 204.55 23.72C204.547 23.8743 204.544 24.1831 204.544 24.3374C203.072 24.3162 201.72 25.079 200.241 24.9882L200.22 25.3302C200.078 25.2848 199.79 25.1909 199.648 25.1455L199.615 25.5178C198.931 25.5451 198.251 25.5814 197.573 25.6268C197.307 25.7932 197.044 25.9567 196.781 26.1231C195.892 26.0959 195.039 26.3502 194.168 26.4742L194.21 26.7497C193.264 26.6831 192.351 26.9071 191.437 27.1038L191.467 27.3792C191.059 27.3853 190.651 27.3944 190.249 27.4034L190.246 27.694L190.019 27.7091C187.554 28.0239 185.177 28.8199 182.736 29.2527C182.128 30.6632 182.422 32.2612 182.467 33.7473C182.386 33.7352 182.225 33.708 182.147 33.6959C182.156 33.1238 182.177 32.5548 182.186 31.9858C182.038 32.5427 181.899 33.1026 181.763 33.6626C181.469 33.7292 181.176 33.7958 180.885 33.8593C181 32.5034 181.143 31.1474 181.158 29.7854C180.997 29.7915 180.677 29.8036 180.517 29.8096C180.356 29.8187 180.039 29.8308 179.881 29.8369C179.912 29.7037 179.969 29.4404 179.996 29.3102C181.448 28.0996 183.024 27.0251 184.744 26.2321C185.116 26.0687 185.504 25.9325 185.891 25.7993C186.187 25.5905 186.535 25.5027 186.928 25.539L186.967 25.306C187.669 25.0003 188.603 25.1607 189.163 24.628C189.281 24.6643 189.52 24.7369 189.638 24.7733V24.401C190.406 24.3768 191.174 24.3586 191.945 24.289Z" fill="#537425"/>
<path d="M160.472 24.7914C162.277 24.6159 164.067 24.0469 165.897 24.286C167.415 24.522 168.934 24.1588 170.458 24.2618C172.542 24.401 174.674 23.9591 176.706 24.6098C178.142 25.1032 179.694 24.9004 181.14 25.3392C182.334 25.6782 183.598 25.7146 184.744 26.2321C183.024 27.0251 181.448 28.0996 179.996 29.3102C179.969 29.4404 179.912 29.7037 179.881 29.8369C180.039 29.8308 180.356 29.8187 180.517 29.8096C180.586 31.0173 180.68 32.2552 180.311 33.4265C179.588 33.4295 178.871 33.4447 178.155 33.4628C178.167 33.7594 178.182 34.053 178.2 34.3496C178.865 35.0881 179.546 35.8418 180.441 36.3079C180.589 37.2189 180.616 38.1511 180.541 39.0743C179.467 39.1257 178.433 39.5616 177.359 39.5252C176.866 39.1499 176.458 38.6838 176.041 38.2389C176.237 36.7044 175.632 35.1305 174.368 34.2134C172.799 32.6638 170.766 31.7891 168.698 31.1202C168.044 30.6934 167.319 30.3908 166.541 30.2848C163.777 29.7884 160.949 29.6553 158.149 29.8702C158.149 30.8448 159.204 31.0657 159.924 31.3896C162.168 32.2249 164.303 33.3539 166.614 34.0016C168.776 34.9277 171.005 35.7086 173.131 36.7104C174.465 37.7849 175.69 39.0198 176.766 40.3606C175.56 40.6633 174.386 41.0688 173.234 41.5228C170.316 42.5701 167.343 43.4478 164.446 44.5465C163.611 44.8431 162.755 45.0731 161.899 45.2971C161.727 45.2698 161.382 45.2184 161.213 45.1942C161.194 45.4484 161.161 45.9569 161.143 46.2111C166.925 46.1627 172.901 46.1718 178.351 43.9744C179.721 45.2002 179.981 47.2523 179.664 49.0078C178.263 49.8522 177.901 51.5169 177.287 52.9122C176.99 53.5326 176.912 54.2197 176.906 54.9007C177.719 55.0732 178.545 55.1973 179.376 55.2639C179.352 55.8995 179.322 56.5381 179.292 57.1737C177.758 56.3868 176.727 54.9279 175.321 53.9503C175.717 53.3178 176.355 52.661 176.068 51.8498C175.024 51.4715 173.89 51.4745 172.823 51.19C172.067 51.0689 171.057 50.73 170.509 51.4745C169.717 52.4188 168.813 53.5115 168.837 54.8069C168.967 55.733 169.995 55.9237 170.754 56.0508C172.157 56.181 173.234 54.8977 174.592 54.8825C175.548 55.3759 176.267 56.2234 177.084 56.9104C177.737 57.549 178.548 58.0333 179.107 58.7597C179.207 60.0248 179.095 61.296 179.068 62.5612C177.843 62.4492 176.537 62.3069 175.381 62.8064C175.396 63.4692 175.402 64.132 175.409 64.7979C174.625 64.9765 173.857 65.2337 173.14 65.5909C172.106 66.2779 171.296 67.3161 170.954 68.5146C170.651 69.462 170.524 70.5698 169.72 71.2568C168.943 71.9287 168.05 72.4523 167.294 73.1515C166.941 73.4451 166.535 73.66 166.118 73.8446C166.106 73.9324 166.079 74.1079 166.067 74.1957C165.177 74.462 164.539 75.1642 163.798 75.6788C162.649 76.499 161.5 77.3222 160.378 78.1818C159.41 78.1758 158.116 77.7006 157.435 78.6509C156.637 79.6165 155.684 80.4397 154.598 81.0632C154.78 79.9706 154.338 78.9899 153.555 78.2454C154.217 78.0305 155.333 78.2666 155.554 77.404C155.681 76.5837 154.759 76.2599 154.281 75.7877C153.507 75.3186 153.431 74.3652 153.107 73.6085C152.678 72.5885 152.164 71.5837 152.031 70.4669C152.442 68.3754 151.03 66.4384 149.451 65.2247C146.599 62.6853 143.611 60.3094 140.714 57.8245C140.653 58.0091 140.536 58.3783 140.475 58.563C140.36 58.9322 140.254 59.3015 140.161 59.6768C139.882 58.7809 139.919 57.6973 139.19 57.0133C138.273 56.0781 137.215 55.2942 136.25 54.4074C136.362 53.5296 136.459 52.6458 136.547 51.7651C137.641 51.0871 138.921 50.4878 139.486 49.2499C140.239 47.9182 140.106 46.3443 139.994 44.8824C140.046 44.7402 140.151 44.4557 140.203 44.3134C141.21 42.6215 141.062 40.5997 140.947 38.7141C140.484 36.1898 138.724 34.0409 136.55 32.7485C137.408 32.5457 138.346 32.4277 139.026 31.8042C139.761 31.1928 140.551 30.6389 141.44 30.2727C143.781 29.2164 146.155 28.2418 148.568 27.3641C148.976 27.2037 149.421 27.2218 149.85 27.1613C152.209 25.9294 154.943 25.8992 157.45 25.1213C158.433 24.8429 159.465 24.9125 160.472 24.7914Z" fill="#ECF3EC"/>
<path d="M190.019 27.7091C190.454 27.9089 190.881 28.151 191.353 28.266C192.717 28.6383 193.829 29.5645 195.106 30.1395C197.885 31.1535 200.301 32.9211 202.703 34.613C206.377 37.2341 209.368 40.6451 212.547 43.8201C213.067 44.3195 213.481 44.9157 213.865 45.5271C214.748 46.9406 215.961 48.1089 216.814 49.5435C218.393 51.9013 219.684 54.4316 220.894 56.9921C222.844 60.3669 223.579 64.241 224.762 67.9123C225.212 69.0746 224.943 70.367 225.406 71.5322C226.02 73.1636 225.648 74.9342 226.023 76.608C226.782 79.7769 226.371 83.079 225.805 86.2479C225.494 87.6946 226.05 89.1868 225.603 90.6154C225.273 91.7564 225.013 92.9217 224.958 94.1112C224.662 97.9157 223.594 101.59 222.76 105.298C222.482 106.218 221.961 107.068 221.895 108.052C221.75 109.308 221.272 110.482 220.966 111.699C220.195 115.346 218.837 118.833 217.836 122.42C216.708 125.259 215.922 128.213 214.933 131.1C214.509 133.034 213.599 134.802 212.94 136.66C212.09 138.343 211.984 140.301 210.977 141.908C210.052 143.809 209.674 145.931 208.673 147.804C207.865 149.254 207.611 150.919 206.891 152.405C206.032 154.318 205.352 156.297 204.544 158.228C203.223 160.64 202.113 163.162 201.121 165.728C199.669 168.755 197.961 171.648 196.467 174.657C195.166 176.019 194.64 177.926 193.197 179.185C192.94 178.982 192.686 178.782 192.432 178.585C192.565 179.872 192.614 181.167 192.602 182.466L192.363 182.569C192.266 182.611 192.078 182.696 191.985 182.738C192.036 180.865 191.386 179.07 191.117 177.236C190.754 175.864 190.536 174.46 190.155 173.098C190.031 172.599 189.946 172.093 189.865 171.594C189.381 169.802 189.027 167.974 188.543 166.182C188.334 165.377 188.147 164.566 187.935 163.764C187.781 163.137 187.593 162.523 187.457 161.899C186.078 156.612 184.545 151.37 182.9 146.164C182.549 145.165 182.268 144.148 181.911 143.155C181.654 142.332 181.375 141.515 181.091 140.701L180.988 140.462C179.975 137.498 178.832 134.587 177.65 131.69C173.476 121.487 167.872 111.89 161.2 103.131C161.107 103.028 160.919 102.819 160.825 102.716C160.744 102.722 160.58 102.731 160.496 102.737C160.302 102.28 160.088 101.829 159.77 101.448C159.776 100.849 159.579 100.174 159.903 99.6258C160.375 99.0658 161.007 98.6814 161.591 98.2486C161.409 98.1639 161.046 97.9914 160.865 97.9036C161.712 97.6947 162.64 97.5707 163.324 96.9714C164.917 95.6185 165.788 93.6632 166.699 91.8291C167.198 90.8878 167.609 89.8315 168.516 89.1989C168.888 89.5258 169.263 89.8527 169.641 90.1795C169.995 89.9525 170.352 89.7316 170.712 89.5106C170.297 89.0687 169.732 88.7116 169.493 88.1365C169.381 87.2437 169.532 86.3447 169.566 85.4519C171.102 82.8974 172.629 80.3338 174.232 77.8186C174.798 77.0922 175.288 76.3113 175.768 75.5274C175.941 75.5305 176.286 75.5365 176.458 75.5396C176.67 75.8452 176.887 76.1479 177.105 76.4536C179.307 76.493 181.512 76.4869 183.713 76.4324C184.865 76.381 186.269 76.6624 187.125 75.6697C187.454 75.0038 187.182 74.1987 187.194 73.4784C187.515 73.2786 187.835 73.0758 188.156 72.87C189.018 72.1618 188.111 71.1388 187.754 70.4124C188.534 69.6829 189.961 69.3319 190.073 68.1242C189.354 66.1811 187.082 66.0661 185.41 65.488C185.422 64.5104 185.392 63.5297 185.343 62.5521C183.973 62.4825 182.597 62.5037 181.227 62.4583C181.215 61.8015 181.206 61.1447 181.236 60.4879C181.475 58.79 181.179 56.974 181.926 55.3789C182.256 54.598 182.552 53.802 182.918 53.0363C183.492 51.8135 184.687 51.0417 185.337 49.8643C185.513 49.4527 185.658 49.029 185.863 48.6325C186.208 48.4781 186.58 48.3964 186.949 48.2905C188.101 50.7693 189.217 53.5296 191.576 55.1065C192.475 55.6846 193.476 56.0902 194.516 56.3384C196.6 56.9377 198.762 57.3553 200.933 57.4068C200.9 57.2555 200.834 56.9528 200.8 56.8015C200.117 56.2415 199.449 55.6695 198.798 55.0763C195.345 51.9769 191.625 49.1803 188.002 46.2838C187.418 45.7904 186.731 45.4515 186.033 45.1609C186.223 45.848 186.372 46.5471 186.362 47.2644C184.884 47.3855 183.459 47.8183 182.001 48.0786C182.041 46.4866 181.95 44.8824 182.132 43.2995C182.712 42.1705 183.438 41.087 184.312 40.1639C184.457 40.1518 184.744 40.1245 184.887 40.1124C188.349 42.8969 192.837 43.7384 197.105 44.4527C198.302 44.7099 199.53 44.7281 200.752 44.6918C200.628 44.0441 199.993 43.8382 199.512 43.5416C194.298 40.4242 189.13 37.2189 183.955 34.0288C183.523 33.6989 182.966 33.7988 182.467 33.7473C182.422 32.2612 182.128 30.6632 182.736 29.2527C185.177 28.8199 187.554 28.0239 190.019 27.7091Z" fill="#ECF3EC"/>
<path d="M122.517 43.1421C122.281 41.3715 121.903 39.4011 122.859 37.7698C122.683 39.5041 122.659 41.2595 122.816 42.9968C123.101 44.1833 123.817 45.2245 124.576 46.1627C125.293 46.9043 126.04 47.667 127.017 48.0604C127.032 48.1512 127.062 48.3328 127.077 48.4267C127.22 50.0701 126.678 51.6531 126.309 53.233C126.69 53.5357 127.065 53.8383 127.446 54.144C126.702 55.049 125.094 55.5182 125.178 56.8741C125.187 60.8905 125.187 64.9099 125.178 68.9263C124.849 68.6145 124.395 68.3361 124.477 67.8125C124.522 64.9886 124.337 62.1677 124.105 59.3529C123.548 59.2712 122.934 59.0261 122.414 59.365C121.219 60.04 120.27 61.0539 119.223 61.9256C118.068 63.0031 116.683 63.8445 115.767 65.1581C115.274 65.8572 114.424 66.1508 113.852 66.7592C113.305 68.0576 112.993 69.4348 112.646 70.7937C112.198 71.6715 111.055 71.5504 110.226 71.5504C108.944 71.4505 107.643 71.5353 106.449 72.0437C107.964 72.979 109.73 72.3888 111.384 72.4493C111.49 72.6733 111.596 72.8973 111.705 73.1243C109.86 73.6842 107.78 74.226 106.636 75.9239C106.863 76.5262 107.141 77.1225 107.217 77.7702C107.069 78.8961 106.6 79.9676 106.591 81.1147C106.485 83.0427 107.265 84.8435 107.625 86.7019C107.813 87.3768 107.819 88.2001 108.412 88.6723C109.594 89.6378 110.362 91.0633 111.781 91.7322C112.951 92.5191 114.415 92.28 115.745 92.3829C115.797 93.4302 115.086 94.1959 114.258 94.7195C113.65 94.3927 113.048 94.0355 112.386 93.8297C111.823 93.9296 111.793 94.5258 111.735 94.9768C113.326 95.0282 115.059 94.995 116.299 96.1663C115.773 96.5386 115.246 96.9108 114.723 97.2861C114.859 99.4593 114.527 101.638 114.775 103.809C114.884 104.841 114.611 105.852 114.354 106.838C117.125 106.99 119.898 106.863 122.671 106.872C123.539 106.869 124.404 106.996 125.239 107.253C121.761 107.559 118.25 107.229 114.763 107.416C113.858 107.498 113.641 108.524 113.281 109.19C112.044 111.793 111.306 114.593 110.807 117.423C109.718 125.171 111.397 132.925 112.954 140.486C113.002 140.225 113.099 139.702 113.148 139.439C113.166 139.774 113.184 140.11 113.205 140.449C113.619 142.265 114.013 144.087 114.451 145.9C114.651 146.808 114.805 147.729 115.053 148.627C115.325 149.726 115.437 150.861 115.77 151.945C115.882 153.685 116.514 155.35 116.499 157.099C116.541 159.52 116.629 161.942 116.477 164.36C116.299 165.489 115.888 166.57 115.625 167.683C115.343 171.107 115.479 174.545 115.537 177.974C115.721 179.799 115.993 181.621 116.365 183.419C116.444 183.924 116.541 184.43 116.659 184.932C117.013 187.102 117.802 189.179 118.053 191.367C118.041 191.555 118.02 191.924 118.008 192.109C117.152 191.8 116.251 191.479 115.634 190.774C113.616 188.646 111.372 186.688 109.83 184.167C108.596 182.817 107.837 181.14 106.736 179.693C105.663 178.198 104.949 176.482 103.89 174.975C102.805 173.467 102.154 171.709 101.102 170.18C100.161 168.18 98.87 166.382 97.6905 164.524C96.0725 162.29 94.6814 159.902 93.0785 157.662C92.268 156.654 91.2125 155.87 90.4353 154.832C89.2195 153.231 87.6469 151.963 86.3192 150.462C82.2274 146.515 77.4974 143.328 72.9519 139.947C70.3298 137.78 67.3267 136.118 64.7107 133.945C63.1411 132.241 60.9576 131.297 59.3638 129.623C57.4131 127.747 55.284 126.061 53.4906 124.027C51.8242 122.571 50.9412 120.504 49.6377 118.763C49.1175 118.255 49.556 117.589 49.6921 117.017C49.4411 116.987 49.1871 116.956 48.9361 116.929C47.8352 115.428 47.935 113.509 47.5237 111.775C47.2183 110.534 47.6296 109.266 47.4421 108.019C47.0701 105.924 48.1134 103.96 48.5368 101.959C49.3262 98.1064 51.3162 94.6469 53.3606 91.3418C55.2477 88.0942 57.643 85.1795 60.1501 82.401C61.4687 81.0965 62.7026 79.6891 64.2026 78.5813C65.8297 77.407 67.1453 75.8573 68.8298 74.7556C70.2451 73.5087 71.9448 72.6612 73.3481 71.4051C77.8754 68.4965 82.4481 65.6333 87.2961 63.2755C89.8606 61.7168 92.5402 60.3578 95.265 59.0987C96.5383 58.5236 97.5998 57.5854 98.8639 56.9952C102.233 55.3668 105.26 53.1089 108.696 51.6137C108.288 51.3716 107.879 51.1265 107.483 50.8722C107.562 50.8359 107.716 50.7633 107.795 50.73C108.835 50.6664 109.89 50.8692 110.922 50.6603C111.923 50.2336 112.821 49.4588 113.287 48.466C113.514 47.6307 113.417 46.7499 113.45 45.8964C115.392 45.9236 117.575 45.7329 118.882 44.0955C119.226 44.2953 119.574 44.495 119.922 44.6948C120.424 44.0531 120.977 43.3388 121.882 43.3691C121.87 43.0543 121.858 42.7365 121.848 42.4218C122.069 42.6609 122.293 42.9 122.517 43.1421Z" fill="#ECF3EC"/>
<path d="M141.301 143.603C141.497 143.606 141.694 143.615 141.896 143.627C143.206 145.41 144.912 146.839 146.548 148.31C149.509 151.215 152.869 153.673 155.808 156.6C157.898 158.603 160.027 160.692 161.158 163.416C161.155 165.383 161.769 167.272 162.338 169.13C163.454 173.062 165.05 176.836 166.566 180.625C167.939 184.076 169.511 187.435 170.99 190.837C171.731 192.19 172.445 193.577 172.904 195.057C173.098 195.559 173.158 196.086 173.034 196.618C172.69 196.594 172.348 196.576 172.006 196.555C172.297 197.396 172.266 198.307 172.593 199.143C170.594 200.704 168.184 201.506 165.879 202.466C164.355 203.649 162.38 203.698 160.65 204.409C158.724 204.509 156.942 205.371 155.028 205.538C153.746 205.62 152.491 205.962 151.202 205.95C151.281 206.443 151.529 206.985 151.214 207.451C150.567 206.755 150.065 205.925 149.309 205.338C149.185 205.356 148.937 205.39 148.813 205.408L148.819 205.035C148.641 205.035 148.29 205.032 148.111 205.032C147.8 204.37 147.062 204.14 146.499 203.749C145.396 203.017 144.307 202.251 143.321 201.364C143.106 201.083 142.898 200.807 142.695 200.526C142.29 199.96 141.89 199.394 141.528 198.804L141.546 198.552C141.506 198.507 141.428 198.413 141.385 198.368C141.177 197.224 140.871 196.086 140.889 194.917C140.968 186.24 140.977 177.559 141.025 168.882C140.953 167.366 141.168 165.861 141.225 164.351C141.234 157.435 141.337 150.519 141.301 143.603Z" fill="#ECF3EC"/>
<path d="M118.065 28.3266C119.051 27.8514 120.164 28.03 121.219 28.033C122.713 28.5566 123.823 29.7189 124.598 31.0687C124.697 32.0675 124.691 33.0754 124.655 34.0803C124.912 34.0742 125.166 34.0651 125.426 34.0591C125.88 33.3932 126.724 33.2177 127.204 32.6033C127.398 32.5821 127.785 32.5367 127.982 32.5155L127.991 32.1281C128.13 32.1795 128.411 32.2824 128.55 32.3309L128.553 31.9283C130.41 31.8526 132.273 31.7921 134.133 31.892C135.007 31.9192 135.763 32.4156 136.55 32.7485C138.724 34.0409 140.484 36.1899 140.947 38.7141C141.062 40.5997 141.21 42.6215 140.203 44.3134C139.453 43.4236 139.813 42.2038 139.728 41.1475C139.77 40.4484 139.404 39.834 139.123 39.2256C138.47 37.6366 136.952 35.6572 135.028 36.4956C134.826 38.4114 133.317 39.6675 131.989 40.8691C131.448 40.5331 130.809 40.857 130.235 40.8872C129.137 41.0688 128.018 40.515 126.938 40.8903C125.971 41.1506 124.982 41.7831 124.709 42.8062C124.54 43.9139 124.628 45.0429 124.576 46.1627C123.817 45.2245 123.101 44.1833 122.816 42.9968C122.659 41.2595 122.683 39.5041 122.859 37.7698C122.964 37.5791 123.179 37.2008 123.288 37.0131C122.245 36.9496 121.319 37.4701 120.354 37.7668C120.382 39.0107 120.509 40.2607 120.333 41.4986C120.128 42.4884 119.538 43.3479 118.882 44.0955C117.575 45.7329 115.392 45.9236 113.45 45.8964C113.417 46.7499 113.514 47.6307 113.287 48.466C112.821 49.4588 111.923 50.2336 110.922 50.6604C109.89 50.8692 108.835 50.6664 107.795 50.73L107.695 50.4273C106.909 50.164 106.446 49.4164 106.028 48.7536C105.907 48.9352 105.669 49.2984 105.548 49.48L105.327 49.5314C105.269 50.5423 104.256 51.2263 103.388 51.5562C102.39 51.7046 101.311 51.7379 100.388 51.2657C99.9799 50.7845 99.3115 50.4424 99.2057 49.7675L98.9184 49.7947C98.8881 48.7899 98.8851 47.782 98.9184 46.7771C99.4779 46.1113 100.104 45.5029 100.784 44.9611C101.631 44.9036 102.484 44.8189 103.334 44.9309C104.271 44.9339 104.61 46.2142 105.545 46.1748C106.016 46.0174 105.79 45.3728 105.914 44.9914C106.691 44.0743 107.553 42.9817 108.886 43.0422C108.892 42.6125 108.889 42.1857 108.88 41.7589C108.333 40.7087 108.442 39.274 108.814 38.1632C109.041 36.5985 110.365 35.406 111.632 34.5918L111.669 34.3466C111.886 34.3557 112.328 34.3799 112.549 34.389L112.543 34.0288C112.942 34.0349 113.341 34.044 113.743 34.053V33.7625C114.233 33.6929 114.983 34.0197 115.216 33.3841C115.419 32.4761 114.847 31.208 115.779 30.5996C116.087 29.5191 117.128 28.8381 118.065 28.3266Z" fill="#555B66"/>
<path d="M158.149 29.8702C160.949 29.6553 163.777 29.7885 166.541 30.2848C167.319 30.3908 168.044 30.6934 168.698 31.1202C165.685 30.9083 162.7 30.0699 159.655 30.4483C161.615 31.5742 163.762 32.3581 165.864 33.1814C166.112 33.4568 166.363 33.7292 166.614 34.0016C164.303 33.3539 162.168 32.2249 159.924 31.3896C159.204 31.0657 158.149 30.8448 158.149 29.8702Z" fill="#BBD3A0"/>
<path d="M180.517 29.8096C180.677 29.8036 180.997 29.7915 181.158 29.7854C181.143 31.1474 181 32.5034 180.886 33.8593C180.247 33.9804 179.6 34.0409 178.962 34.1257C179.346 34.7189 179.776 35.294 180.399 35.6602C180.408 35.8206 180.432 36.1445 180.441 36.3079C179.546 35.8418 178.865 35.0881 178.2 34.3496C178.182 34.053 178.167 33.7594 178.155 33.4628C178.871 33.4447 179.588 33.4295 180.311 33.4265C180.68 32.2552 180.586 31.0173 180.517 29.8096Z" fill="#ABC285"/>
<path d="M159.655 30.4483C162.7 30.0699 165.685 30.9083 168.698 31.1202C170.766 31.7891 172.799 32.6638 174.368 34.2134C174.426 35.2546 175.65 36.3109 174.852 37.2613C173.013 35.6693 170.621 35.0639 168.45 34.0863C167.615 33.714 166.741 33.4356 165.864 33.1813C163.762 32.3581 161.615 31.5742 159.655 30.4483Z" fill="#75A039"/>
<path d="M182.186 31.9858C182.177 32.5548 182.156 33.1238 182.147 33.6959C182.225 33.708 182.386 33.7352 182.467 33.7473C182.966 33.7988 183.523 33.6989 183.955 34.0288C189.13 37.2189 194.298 40.4242 199.512 43.5416C199.993 43.8382 200.628 44.0441 200.752 44.6918C199.53 44.7281 198.302 44.7099 197.105 44.4526C192.837 43.7384 188.349 42.8969 184.887 40.1124C184.448 39.7825 184.001 39.4738 183.571 39.1348C183.456 39.0137 183.223 38.7716 183.105 38.6505C182.912 38.4114 182.724 38.1723 182.54 37.9302C182.361 38.0543 182.004 38.3025 181.826 38.4235C181.75 37.5125 181.022 36.9223 180.441 36.3079C180.432 36.1444 180.408 35.8206 180.399 35.6602C179.776 35.294 179.346 34.7189 178.962 34.1257C179.6 34.0409 180.247 33.9804 180.886 33.8593C181.176 33.7958 181.469 33.7292 181.763 33.6626C181.899 33.1026 182.038 32.5427 182.186 31.9858Z" fill="#75A036"/>
<path d="M165.864 33.1813C166.741 33.4356 167.615 33.714 168.45 34.0863C170.621 35.0639 173.013 35.6693 174.852 37.2613C175.65 36.3109 174.426 35.2546 174.368 34.2134C175.632 35.1305 176.237 36.7044 176.041 38.2389C176.458 38.6838 176.866 39.1499 177.359 39.5252C178.433 39.5615 179.467 39.1257 180.541 39.0743L180.498 39.4496C179.264 39.8007 178.009 40.061 176.766 40.3606C175.69 39.0198 174.465 37.7849 173.131 36.7104C171.005 35.7086 168.776 34.9277 166.614 34.0016C166.363 33.7292 166.112 33.4568 165.864 33.1813Z" fill="#A0B37F"/>
<path d="M135.028 36.4955C136.952 35.6572 138.47 37.6366 139.123 39.2256C139.159 40.5452 139.172 41.8679 139.159 43.1905C138.987 43.133 138.642 43.018 138.47 42.9605C138.192 42.8606 137.913 42.7577 137.641 42.6548C138.703 41.4683 138.273 39.8037 137.826 38.4477C137.608 37.6003 136.595 37.5397 135.92 37.2673C135.291 38.2964 134.88 39.5192 133.873 40.2637C132.675 41.1899 131.366 41.9678 130.147 42.8667C129.321 42.8001 128.547 42.4732 127.77 42.219C127.09 42.5791 126.113 42.9423 126.161 43.8836C125.931 45.3274 127.58 45.6633 128.523 46.2414C129.119 48.5356 128.32 50.8843 128.741 53.1937C130.335 53.4449 131.95 53.46 133.559 53.3934C133.997 53.3964 134.408 53.2239 134.792 53.0242C134.935 52.9424 135.219 52.776 135.361 52.6912L135.57 53.1997C135.527 53.3934 135.437 53.7839 135.391 53.9776C133.023 54.1834 130.64 54.0502 128.266 54.0532C127.855 52.2614 128.139 50.4243 128.018 48.6113C127.903 48.5901 127.673 48.5447 127.561 48.5235C127.44 48.4993 127.198 48.4509 127.077 48.4267C127.062 48.3328 127.032 48.1512 127.017 48.0604C127.268 48.0453 127.773 48.0211 128.024 48.009C127.994 47.7245 127.93 47.1524 127.9 46.8649C127.229 46.4593 126.464 46.1627 125.904 45.5998C125.266 44.5374 125.239 42.8969 126.273 42.0616C127.268 41.1233 128.792 41.656 129.966 41.9133C130.676 41.6409 131.372 41.32 131.989 40.8691C133.317 39.6675 134.826 38.4114 135.028 36.4955Z" fill="#CD883D"/>
<path d="M180.441 36.3079C181.022 36.9223 181.75 37.5125 181.826 38.4235C181.871 39.7371 181.602 41.0991 182.065 42.3643C181.118 44.6161 181.608 47.1373 181.499 49.5132C181.194 49.4769 180.892 49.4467 180.589 49.4224C180.498 49.3498 180.311 49.2106 180.22 49.1379C180.287 48.0756 180.359 46.9981 180.087 45.9539C179.824 45.2941 180.568 44.8219 180.565 44.1893C180.504 43.699 180.362 43.2269 180.238 42.7517C179.264 42.8092 178.536 43.5235 177.634 43.8049C174.081 45.0943 170.273 45.5271 166.514 45.5937C164.981 45.6542 163.287 46.2233 161.899 45.2971C162.755 45.0731 163.611 44.8431 164.446 44.5465C167.343 43.4478 170.316 42.5701 173.234 41.5228C174.386 41.0688 175.56 40.6633 176.766 40.3606C178.009 40.061 179.264 39.8007 180.498 39.4496L180.541 39.0743C180.616 38.1511 180.589 37.2189 180.441 36.3079Z" fill="#547428"/>
<path d="M120.354 37.7667C121.319 37.4701 122.245 36.9495 123.288 37.0131C123.179 37.2008 122.964 37.5791 122.859 37.7698C121.903 39.4011 122.281 41.3715 122.517 43.1421C122.293 42.9 122.069 42.6609 121.848 42.4218C121.858 42.7365 121.87 43.0543 121.882 43.3691C120.977 43.3388 120.424 44.0531 119.922 44.6948C119.574 44.495 119.226 44.2953 118.882 44.0955C119.538 43.3479 120.128 42.4883 120.333 41.4986C120.509 40.2607 120.382 39.0107 120.354 37.7667Z" fill="#F6F8F7"/>
<path d="M185.119 198.365C187.796 198.468 190.479 198.374 193.158 198.41C193.397 198.595 193.636 198.785 193.875 198.976C190.935 199.133 187.986 198.991 185.041 199.073C185.062 198.894 185.101 198.543 185.119 198.365Z" fill="#F6F8F7"/>
<path d="M133.873 40.2637C134.88 39.5192 135.291 38.2964 135.92 37.2673C136.595 37.5397 137.608 37.6003 137.826 38.4477C138.273 39.8037 138.703 41.4683 137.641 42.6548C137.913 42.7577 138.192 42.8606 138.47 42.9605C138.198 42.9363 137.65 42.8848 137.378 42.8606C137.324 43.1633 137.272 43.469 137.227 43.7716C137.372 43.9199 137.662 44.2166 137.808 44.3618C138.143 45.0035 138.449 45.6633 138.854 46.2656C138.579 47.2402 138.576 48.3449 137.983 49.1985C137.136 50.0036 135.927 50.3274 135.176 51.2596C134.626 51.2717 134.076 51.2778 133.531 51.2899C133.752 51.9981 134.254 52.5399 134.792 53.0242C134.408 53.2239 133.997 53.3964 133.559 53.3934C131.95 53.46 130.335 53.4449 128.741 53.1937C128.32 50.8843 129.119 48.5356 128.523 46.2414C127.579 45.6633 125.931 45.3274 126.161 43.8836C126.113 42.9423 127.09 42.5791 127.77 42.219C128.547 42.4732 129.321 42.8001 130.147 42.8667C131.366 41.9678 132.675 41.1899 133.873 40.2637ZM132.748 43.1088L132.772 43.3782C132.11 43.587 130.985 43.5295 130.976 44.4859C130.552 45.6754 132.034 46.9073 133.081 46.1627C133.997 45.8873 134.1 44.8249 133.761 44.0622L134.021 44.0713C134.039 43.7353 134.061 43.3994 134.082 43.0664C133.634 43.0785 133.19 43.0937 132.748 43.1088ZM135.751 43.3207C135.799 43.7898 135.848 44.2589 135.899 44.7311C135.57 44.9944 135.243 45.2608 134.916 45.5271C134.919 45.6663 134.922 45.9448 134.925 46.084C135.579 46.0416 136.489 46.4139 136.931 45.745C137.179 44.8855 137.097 43.8867 136.619 43.1118C136.401 43.1663 135.969 43.2692 135.751 43.3207ZM134.278 47.4279C135.14 47.9121 136.117 48.0453 137.021 47.5762C137.039 47.2039 137.064 46.8346 137.088 46.4623C136.153 46.4745 135.222 46.4805 134.29 46.4775C134.287 46.7923 134.281 47.1101 134.278 47.4279Z" fill="#F18918"/>
<path d="M181.826 38.4235C182.004 38.3025 182.361 38.0543 182.54 37.9302C182.724 38.1723 182.912 38.4114 183.105 38.6505C182.909 38.6838 182.513 38.7565 182.316 38.7898C182.328 39.504 182.355 40.2183 182.416 40.9296C182.957 40.4484 183.317 39.8097 183.571 39.1348C184.001 39.4738 184.448 39.7825 184.887 40.1124C184.744 40.1245 184.457 40.1517 184.312 40.1639C183.438 41.087 182.712 42.1705 182.132 43.2995C181.95 44.8824 182.041 46.4866 182.001 48.0786C183.459 47.8183 184.884 47.3855 186.362 47.2644C186.372 46.5471 186.223 45.8479 186.033 45.1609C186.731 45.4514 187.418 45.7904 188.002 46.2838C191.625 49.1803 195.345 51.9769 198.798 55.0762C198.069 54.6828 197.322 54.3226 196.615 53.8958C193.415 51.187 190.107 48.6143 186.892 45.9236C186.683 47.4279 187.717 48.6173 188.235 49.937C189.19 51.9225 190.448 53.9564 192.481 54.9764C193.173 55.4092 193.829 55.8934 194.516 56.3384C193.476 56.0902 192.475 55.6846 191.576 55.1065C189.217 53.5296 188.101 50.7693 186.949 48.2905C186.907 48.2148 186.819 48.0635 186.777 47.9878C185.47 48.0332 184.164 48.2935 183.015 48.9412C183.713 49.0774 184.418 49.1531 185.129 49.2075C185.18 49.371 185.286 49.7009 185.337 49.8643C184.687 51.0417 183.492 51.8135 182.918 53.0363C182.552 53.802 182.256 54.598 181.926 55.3789C181.179 56.974 181.475 58.79 181.236 60.4879C181.149 61.29 180.997 62.083 180.852 62.876C180.238 62.9062 179.643 62.7579 179.068 62.5612C179.095 61.296 179.207 60.0248 179.107 58.7597C178.548 58.0333 177.737 57.549 177.084 56.9104C176.267 56.2233 175.548 55.3759 174.592 54.8825C173.234 54.8977 172.157 56.181 170.754 56.0508C169.995 55.9237 168.967 55.733 168.837 54.8069C168.813 53.5115 169.717 52.4188 170.509 51.4745C171.057 50.73 172.067 51.0689 172.823 51.19C173.89 51.4745 175.024 51.4715 176.068 51.8498C176.355 52.661 175.717 53.3177 175.321 53.9503C176.727 54.9279 177.758 56.3868 179.292 57.1737C179.322 56.5381 179.352 55.8995 179.376 55.2639C178.545 55.1973 177.719 55.0732 176.906 54.9007C176.912 54.2197 176.99 53.5326 177.287 52.9122C177.901 51.5169 178.263 49.8522 179.664 49.0078C179.981 47.2523 179.721 45.2002 178.351 43.9744C172.901 46.1718 166.925 46.1627 161.143 46.2111C161.161 45.9569 161.194 45.4484 161.213 45.1942C161.382 45.2184 161.727 45.2698 161.899 45.2971C163.287 46.2232 164.981 45.6542 166.514 45.5937C170.273 45.5271 174.081 45.0943 177.634 43.8049C178.536 43.5235 179.264 42.8092 180.238 42.7517C180.362 43.2268 180.504 43.699 180.565 44.1893C180.568 44.8219 179.824 45.2941 180.087 45.9539C180.359 46.9981 180.287 48.0756 180.22 49.1379C178.675 50.5211 177.78 52.5127 177.513 54.5436C178.254 54.5496 178.995 54.5526 179.736 54.5617C179.785 55.615 179.773 56.6683 179.7 57.7216C179.606 57.7912 179.416 57.9334 179.319 58.0061C179.999 59.4165 179.552 61.0176 179.661 62.5218C179.954 62.5097 180.25 62.4976 180.55 62.4855C181.176 60.3971 180.631 58.1695 181.224 56.0781C181.512 55.2155 181.496 54.3044 181.542 53.4086C181.696 53.4207 182.001 53.4418 182.153 53.4539C182.721 52.3886 183.462 51.4382 184.236 50.5181C184.433 50.2608 184.614 49.9914 184.805 49.7281C183.698 49.7675 182.582 49.7887 181.499 49.5132C181.608 47.1373 181.118 44.6161 182.065 42.3642C181.602 41.0991 181.871 39.7371 181.826 38.4235ZM169.439 55.1791C170.074 55.2367 170.718 55.3093 171.362 55.2821C172.65 55.3244 173.573 54.2651 174.746 53.8989C174.795 53.7385 174.891 53.4207 174.94 53.2602C175.061 53.1664 175.303 52.9757 175.424 52.8819C175.448 52.7185 175.493 52.3976 175.517 52.2372C174.081 52.1404 172.696 51.7409 171.28 51.5229C170.288 52.4703 169.136 53.69 169.439 55.1791Z" fill="#AABF96"/>
<path d="M182.316 38.7897C182.513 38.7564 182.909 38.6838 183.105 38.6505C183.223 38.7716 183.456 39.0137 183.571 39.1348C183.317 39.8097 182.957 40.4484 182.416 40.9296C182.355 40.2183 182.328 39.504 182.316 38.7897Z" fill="#EDFEDC"/>
<path d="M139.123 39.2256C139.404 39.8339 139.77 40.4484 139.728 41.1475C139.813 42.2038 139.453 43.4236 140.203 44.3134C139.534 44.7856 139.129 45.5089 138.854 46.2656C138.449 45.6633 138.143 45.0035 137.808 44.3618C137.986 44.262 138.349 44.0622 138.53 43.9623C138.509 43.6264 138.488 43.2934 138.47 42.9605C138.642 43.018 138.987 43.133 139.159 43.1905C139.172 41.8679 139.159 40.5452 139.123 39.2256Z" fill="#B16025"/>
<path d="M126.938 40.8903C128.018 40.515 129.137 41.0688 130.235 40.8872C130.809 40.857 131.448 40.5331 131.989 40.8691C131.372 41.3201 130.676 41.6409 129.966 41.9133C128.792 41.656 127.268 41.1233 126.273 42.0616C125.239 42.897 125.266 44.5374 125.904 45.5998C126.464 46.1627 127.229 46.4593 127.9 46.8649C127.93 47.1524 127.994 47.7245 128.024 48.009C127.773 48.0211 127.268 48.0453 127.017 48.0604C126.04 47.667 125.293 46.9043 124.576 46.1627C124.628 45.0429 124.54 43.9139 124.709 42.8062C124.982 41.7831 125.971 41.1506 126.938 40.8903Z" fill="#6A5842"/>
<path d="M132.748 43.1088C133.19 43.0937 133.634 43.0785 134.082 43.0664C134.061 43.3994 134.039 43.7353 134.021 44.0713L133.761 44.0622C133.45 44.0531 133.141 44.0441 132.836 44.035C132.821 43.8715 132.79 43.5416 132.772 43.3782L132.748 43.1088Z" fill="#8B2804"/>
<path d="M137.378 42.8606C137.65 42.8848 138.198 42.9363 138.47 42.9605C138.488 43.2934 138.509 43.6264 138.53 43.9623C138.349 44.0622 137.986 44.262 137.808 44.3619C137.662 44.2166 137.372 43.92 137.227 43.7717C137.272 43.469 137.324 43.1633 137.378 42.8606Z" fill="#99430E"/>
<path d="M130.976 44.4859C130.985 43.5295 132.11 43.587 132.772 43.3782C132.79 43.5416 132.821 43.8715 132.836 44.035C133.141 44.044 133.45 44.0531 133.761 44.0622C134.1 44.8249 133.997 45.8873 133.081 46.1627C132.034 46.9073 130.552 45.6754 130.976 44.4859Z" fill="#E55806"/>
<path d="M135.751 43.3207C135.969 43.2692 136.401 43.1663 136.619 43.1118C137.097 43.8867 137.179 44.8855 136.931 45.745C136.489 46.4139 135.579 46.0417 134.925 46.084C134.922 45.9448 134.919 45.6664 134.916 45.5271C135.243 45.2608 135.57 44.9944 135.899 44.7311C135.848 44.259 135.8 43.7898 135.751 43.3207Z" fill="#A04A0A"/>
<path d="M138.854 46.2656C139.129 45.5089 139.535 44.7856 140.203 44.3134C140.151 44.4557 140.046 44.7402 139.994 44.8824C139.123 46.3715 139.716 48.3782 138.4 49.6767C137.699 50.6876 135.86 50.6543 135.812 52.0889C135.733 52.4582 135.651 52.8305 135.57 53.1997L135.361 52.6912C135.282 52.216 135.219 51.7378 135.177 51.2596C135.927 50.3274 137.136 50.0035 137.983 49.1985C138.576 48.3449 138.579 47.2402 138.854 46.2656Z" fill="#DF9E55"/>
<path d="M138.4 49.6767C139.716 48.3782 139.123 46.3716 139.994 44.8824C140.106 46.3443 140.239 47.9182 139.486 49.2499C138.921 50.4878 137.641 51.0871 136.547 51.7651C136.459 52.6458 136.362 53.5296 136.25 54.4074C135.984 54.2227 135.694 54.0865 135.391 53.9776C135.437 53.7839 135.527 53.3934 135.57 53.1997C135.651 52.8305 135.733 52.4582 135.812 52.0889C135.86 50.6543 137.699 50.6876 138.4 49.6767Z" fill="#FDE7BE"/>
<path d="M186.892 45.9236C190.107 48.6143 193.415 51.187 196.615 53.8959C197.534 54.816 198.674 55.503 199.485 56.5321C198.575 56.5079 197.667 56.4534 196.769 56.3414C195.254 56.1961 193.92 55.3941 192.481 54.9764C190.448 53.9564 189.19 51.9225 188.235 49.937C187.717 48.6174 186.683 47.4279 186.892 45.9236Z" fill="#557529"/>
<path d="M134.278 47.4278C134.281 47.11 134.287 46.7922 134.29 46.4775C135.222 46.4805 136.153 46.4744 137.088 46.4623C137.064 46.8346 137.039 47.2039 137.021 47.5762C136.117 48.0453 135.14 47.9121 134.278 47.4278Z" fill="#FFE6AF"/>
<path d="M183.015 48.9412C184.164 48.2935 185.47 48.0332 186.777 47.9878C186.819 48.0635 186.907 48.2148 186.949 48.2905C186.58 48.3964 186.208 48.4781 185.863 48.6325C185.658 49.029 185.513 49.4527 185.337 49.8643C185.286 49.7009 185.18 49.371 185.129 49.2075C184.418 49.1531 183.713 49.0774 183.015 48.9412Z" fill="#D0E2BE"/>
<path d="M127.077 48.4267C127.198 48.4509 127.44 48.4993 127.561 48.5235C127.722 50.3244 127.513 52.1343 127.676 53.9352L127.446 54.144C127.065 53.8383 126.69 53.5357 126.309 53.233C126.678 51.6531 127.22 50.0701 127.077 48.4267Z" fill="#FEF3D3"/>
<path d="M127.561 48.5235C127.673 48.5447 127.903 48.5901 128.018 48.6113C128.139 50.4243 127.855 52.2615 128.266 54.0532C128.118 54.023 127.824 53.9624 127.676 53.9352C127.513 52.1343 127.722 50.3244 127.561 48.5235Z" fill="#E9C894"/>
<path d="M180.22 49.1379C180.311 49.2106 180.498 49.3498 180.589 49.4224C180.892 49.4467 181.194 49.4769 181.499 49.5132C182.582 49.7887 183.698 49.7675 184.805 49.7281C184.614 49.9915 184.433 50.2608 184.236 50.5181C183.904 50.3547 183.577 50.1942 183.251 50.0308C182.561 51.0932 181.989 52.2251 181.542 53.4086C181.496 54.3045 181.512 55.2155 181.224 56.0781C181.224 55.3244 181.106 54.5587 180.383 54.1683C179.93 55.2306 179.975 56.3959 179.963 57.5248C179.897 57.5733 179.767 57.6731 179.7 57.7216C179.773 56.6683 179.785 55.615 179.736 54.5617C178.995 54.5526 178.254 54.5496 177.513 54.5436C177.78 52.5127 178.675 50.5211 180.22 49.1379Z" fill="#75A236"/>
<path d="M183.25 50.0308C183.577 50.1942 183.904 50.3546 184.236 50.5181C183.462 51.4382 182.721 52.3886 182.153 53.454C182.001 53.4418 181.696 53.4207 181.542 53.4086C181.989 52.2251 182.561 51.0932 183.25 50.0308Z" fill="#628136"/>
<path d="M133.531 51.2899C134.076 51.2778 134.626 51.2717 135.177 51.2596C135.219 51.7378 135.282 52.216 135.361 52.6912C135.219 52.776 134.935 52.9424 134.792 53.0242C134.254 52.5399 133.752 51.9981 133.531 51.2899Z" fill="#D8630C"/>
<path d="M169.439 55.1792C169.136 53.69 170.288 52.4703 171.28 51.5229C172.696 51.7409 174.081 52.1404 175.517 52.2372C175.493 52.3977 175.448 52.7185 175.424 52.8819C175.303 52.9758 175.061 53.1664 174.94 53.2603C174.891 53.4207 174.795 53.7385 174.746 53.8989C173.573 54.2651 172.65 55.3244 171.362 55.2821C170.718 55.3093 170.074 55.2367 169.439 55.1792Z" fill="#577426"/>
<path d="M127.446 54.1441L127.676 53.9352C127.824 53.9625 128.118 54.023 128.266 54.0533C127.449 54.9491 126.143 55.4697 125.611 56.5654C125.517 60.6423 125.614 64.7283 125.568 68.8052C125.559 68.9989 125.544 69.3803 125.535 69.574C125.329 69.6587 125.133 69.7586 124.942 69.8706C125.075 69.571 125.151 69.2501 125.178 68.9263C125.187 64.9099 125.187 60.8905 125.178 56.8741C125.094 55.5182 126.702 55.049 127.446 54.1441Z" fill="#909C91"/>
<path d="M128.266 54.0532C130.64 54.0502 133.023 54.1834 135.391 53.9776C136.262 55.8874 139.063 56.3928 139.401 58.6598C139.888 61.1901 140.935 63.5993 141.107 66.1902C141.243 65.8693 141.376 65.5455 141.506 65.2247C141.558 65.6877 141.642 66.1448 141.763 66.5957C142.423 68.893 142.891 71.2447 143.59 73.5329C145.389 80.8241 147.364 88.0699 149.209 95.3521C149.091 95.8848 148.949 96.4114 148.813 96.9411C147.748 97.2438 146.699 97.6251 145.786 98.2607C145.571 98.1397 145.362 98.0216 145.154 97.9006C145.033 97.9792 144.788 98.1336 144.667 98.2123C143.209 97.4496 141.706 98.5483 140.203 98.5089C138.458 98.4242 136.807 99.081 135.074 99.1415C133.105 99.2202 131.308 100.207 129.337 100.289C128.082 100.319 126.805 100.691 125.565 100.346C125.571 94.1505 125.574 87.9549 125.559 81.7593C128.024 80.4458 129.83 78.0335 130.422 75.3065C131.194 73.2695 131.194 71.0359 130.912 68.9051C130.486 68.1787 129.79 67.5522 128.98 67.301C127.595 66.9711 126.799 68.4753 125.568 68.8052C125.614 64.7283 125.517 60.6423 125.611 56.5654C126.143 55.4697 127.449 54.9491 128.266 54.0532Z" fill="#2A4A45"/>
<path d="M135.391 53.9776C135.694 54.0865 135.984 54.2227 136.25 54.4074C137.215 55.2942 138.273 56.0781 139.19 57.0133C139.919 57.6973 139.882 58.7809 140.161 59.6768C140.557 61.5382 141.228 63.3391 141.506 65.2247C141.376 65.5455 141.243 65.8693 141.107 66.1902C140.935 63.5993 139.888 61.1901 139.401 58.6598C139.063 56.3929 136.262 55.8874 135.391 53.9776Z" fill="#7E8D86"/>
<path d="M196.615 53.8958C197.322 54.3226 198.069 54.6828 198.798 55.0762C199.449 55.6695 200.117 56.2415 200.8 56.8014C200.834 56.9528 200.9 57.2554 200.933 57.4068C198.762 57.3553 196.6 56.9376 194.516 56.3384C193.829 55.8934 193.173 55.4092 192.481 54.9764C193.92 55.394 195.254 56.1961 196.769 56.3414C197.667 56.4534 198.575 56.5079 199.485 56.5321C198.674 55.503 197.534 54.816 196.615 53.8958Z" fill="#89977E"/>
<path d="M179.963 57.5248C179.975 56.3959 179.93 55.2306 180.383 54.1682C181.106 54.5587 181.224 55.3244 181.224 56.0781C180.631 58.1695 181.176 60.3971 180.55 62.4855C180.25 62.4976 179.954 62.5097 179.661 62.5218C179.552 61.0176 179.999 59.4165 179.319 58.0061C179.416 57.9334 179.606 57.7912 179.7 57.7216C179.767 57.6731 179.897 57.5732 179.963 57.5248Z" fill="#576E32"/>
<path d="M140.714 57.8245C143.611 60.3094 146.599 62.6853 149.451 65.2247C151.03 66.4384 152.442 68.3754 152.031 70.4669C151.069 69.0171 150.558 67.2041 149.097 66.1448C147.794 65.146 146.539 64.0836 145.32 62.9819C143.714 61.4958 141.703 60.4304 140.475 58.563C140.536 58.3783 140.653 58.0091 140.714 57.8245Z" fill="#E3E4DC"/>
<path d="M140.16 59.6768C140.254 59.3015 140.36 58.9322 140.475 58.563C141.703 60.4304 143.714 61.4958 145.32 62.9819C146.539 64.0836 147.794 65.146 149.097 66.1448C150.558 67.2041 151.069 69.0171 152.031 70.4669C152.164 71.5837 152.678 72.5886 153.107 73.6085C153.431 74.3652 153.507 75.3186 154.281 75.7877C154.759 76.2599 155.681 76.5838 155.554 77.404C155.333 78.2666 154.217 78.0305 153.555 78.2454C154.338 78.99 154.78 79.9706 154.598 81.0632C155.684 80.4397 156.637 79.6165 157.435 78.651C158.116 77.7006 159.41 78.1758 160.378 78.1818C158.935 79.2381 157.502 80.3096 156.032 81.3326C155.872 83.1244 157.033 84.6196 157.399 86.3084C158.597 89.7831 159.667 93.3031 161.016 96.7232C161.279 96.7262 161.805 96.7353 162.068 96.7414C163.562 95.4217 164.606 93.7026 165.58 91.9865C166.838 89.7649 168.202 87.6069 169.566 85.4519C169.532 86.3448 169.381 87.2437 169.493 88.1366C169.732 88.7116 170.297 89.0688 170.712 89.5107C170.352 89.7316 169.995 89.9526 169.641 90.1796C169.263 89.8527 168.888 89.5258 168.516 89.1989C167.609 89.8315 167.198 90.8878 166.699 91.8291C165.788 93.6632 164.917 95.6185 163.323 96.9714C162.64 97.5707 161.712 97.6948 160.865 97.9036C161.046 97.9914 161.409 98.1639 161.591 98.2486C161.007 98.6814 160.375 99.0658 159.903 99.6258C159.579 100.174 159.776 100.849 159.77 101.448C159.029 100.552 158.215 99.7196 157.532 98.7753C155.76 98.8782 154.127 99.6863 152.354 99.8043C152.379 99.9103 152.427 100.122 152.451 100.228C151.774 100.27 151.096 100.307 150.419 100.331C150.24 98.6209 149.572 97.0198 149.209 95.3521C147.364 88.07 145.389 80.8241 143.59 73.5329C142.891 71.2447 142.423 68.893 141.763 66.5958C141.642 66.1448 141.558 65.6878 141.506 65.2247C141.228 63.3391 140.557 61.5382 140.16 59.6768Z" fill="#F4F0E5"/>
<path d="M122.414 59.365C122.934 59.0261 123.548 59.2712 124.105 59.3529C124.337 62.1677 124.522 64.9886 124.477 67.8125C124.395 68.3361 124.849 68.6145 125.178 68.9263C125.151 69.2501 125.075 69.571 124.942 69.8706C123.823 70.6061 122.792 71.4687 121.74 72.295C120.521 73.3301 118.848 73.3482 117.366 73.7145C114.754 74.0807 112.156 74.5408 109.564 75.0432C109.113 75.2187 108.753 75.5607 108.369 75.8422C107.925 79.3532 107.504 83.0154 108.49 86.4719C109.525 88.5815 111.139 90.7243 113.565 91.2449C115.125 91.3327 116.916 91.6505 118.259 90.6335C120.351 89.2473 121.664 86.9592 122.662 84.7104C123.122 83.8962 123.482 83.0275 123.548 82.0832C123.742 81.8108 123.929 81.5324 124.123 81.26C124.386 81.2448 124.909 81.2085 125.169 81.1934C125.187 87.4223 125.181 93.6542 125.181 99.883C125.251 102.341 125.033 104.798 125.239 107.253C124.404 106.996 123.539 106.869 122.671 106.872C119.898 106.863 117.125 106.99 114.354 106.838C114.611 105.852 114.884 104.841 114.775 103.809C114.527 101.639 114.859 99.4593 114.723 97.2862C115.246 96.9108 115.773 96.5386 116.299 96.1663C115.059 94.995 113.326 95.0283 111.735 94.9768C111.793 94.5258 111.823 93.9296 112.385 93.8297C113.048 94.0355 113.65 94.3927 114.258 94.7195C115.086 94.1959 115.797 93.4302 115.745 92.383C114.415 92.2801 112.951 92.5192 111.781 91.7322C110.362 91.0633 109.594 89.6378 108.412 88.6723C107.819 88.2001 107.813 87.3768 107.625 86.7019C107.265 84.8435 106.485 83.0427 106.591 81.1147C106.6 79.9676 107.069 78.8961 107.217 77.7702C107.141 77.1225 106.863 76.5263 106.636 75.9239C107.78 74.226 109.86 73.6842 111.705 73.1243C111.596 72.8973 111.49 72.6733 111.384 72.4493C109.73 72.3888 107.964 72.979 106.449 72.0438C107.643 71.5353 108.944 71.4505 110.226 71.5504C111.055 71.5504 112.198 71.6715 112.646 70.7937C112.993 69.4348 113.305 68.0576 113.852 66.7592C114.424 66.1508 115.274 65.8572 115.767 65.1581C116.683 63.8445 118.068 63.0031 119.223 61.9256C120.27 61.0539 121.219 60.04 122.414 59.365Z" fill="#F4F0E5"/>
<path d="M180.852 62.876C180.997 62.083 181.149 61.29 181.236 60.4879C181.206 61.1447 181.215 61.8015 181.227 62.4583C182.597 62.5037 183.973 62.4825 185.343 62.5521C185.392 63.5297 185.422 64.5104 185.41 65.488C185.407 65.6545 185.407 65.9844 185.404 66.1508C185.189 66.3385 184.974 66.5261 184.763 66.7168C184.708 67.6309 184.611 68.7235 185.564 69.2199C185.44 69.3833 185.198 69.7102 185.077 69.8706C184.515 70.6212 184.224 71.5201 183.946 72.4039C183.604 72.4493 183.26 72.4917 182.924 72.5371C183.384 73.7871 183.647 75.1007 183.713 76.4324C181.512 76.4869 179.307 76.493 177.105 76.4536C176.887 76.1479 176.67 75.8453 176.458 75.5396C176.286 75.5365 175.941 75.5305 175.768 75.5274C176.128 75.1824 176.518 74.8737 176.906 74.5559C176.742 72.5643 177.671 70.7241 178.666 69.0685C179.358 67.9547 181 68.6115 181.832 67.6793C182.6 66.9771 183.051 65.9995 183.048 64.9553C182.298 64.7525 181.524 64.6526 180.749 64.692C178.968 64.7646 177.184 64.6103 175.409 64.7979C175.402 64.132 175.396 63.4692 175.381 62.8064C176.537 62.307 177.843 62.4492 179.068 62.5612C179.643 62.7579 180.238 62.9063 180.852 62.876Z" fill="#C9B898"/>
<path d="M173.14 65.5909C173.857 65.2338 174.625 64.9765 175.409 64.7979C177.184 64.6103 178.968 64.7646 180.749 64.692C181.524 64.6526 182.298 64.7525 183.048 64.9553C183.051 65.9995 182.6 66.9771 181.832 67.6793C181 68.6115 179.358 67.9547 178.666 69.0685C177.671 70.7241 176.742 72.5643 176.906 74.5559C176.518 74.8737 176.128 75.1824 175.768 75.5274C175.288 76.3113 174.798 77.0922 174.232 77.8186C174.096 76.6867 174.958 75.8513 175.523 74.9826C176.277 74.0414 176.08 72.752 176.473 71.6684C176.993 70.0522 177.541 68.0213 179.373 67.4644C180.622 67.1799 181.953 66.7955 182.618 65.5788C181.13 65.0703 179.549 65.3276 178.012 65.258C176.373 65.152 174.776 65.6726 173.14 65.5909Z" fill="#DBB27D"/>
<path d="M173.14 65.5909C174.776 65.6726 176.373 65.152 178.012 65.2579C179.549 65.3276 181.13 65.0703 182.618 65.5788C181.953 66.7955 180.622 67.1799 179.373 67.4644C177.541 68.0213 176.993 70.0522 176.473 71.6684C176.08 72.752 176.276 74.0413 175.523 74.9826C174.958 75.8513 174.096 76.6866 174.232 77.8186C172.629 80.3338 171.102 82.8974 169.566 85.4519C168.202 87.6068 166.838 89.7649 165.58 91.9864C164.606 93.7026 163.562 95.4217 162.068 96.7413C161.805 96.7353 161.279 96.7262 161.016 96.7232C159.667 93.303 158.597 89.783 157.399 86.3084C157.033 84.6195 155.872 83.1244 156.032 81.3326C157.502 80.3096 158.935 79.2381 160.378 78.1818C161.5 77.3222 162.649 76.499 163.798 75.6788C164.539 75.1642 165.177 74.462 166.067 74.1957C165.994 74.5135 166.03 74.91 165.734 75.1279C163.934 76.8501 161.618 77.867 159.694 79.4258C158.678 80.2097 157.638 80.9663 156.694 81.838C158.352 86.5384 159.595 91.3902 161.642 95.9453C163.015 94.4622 164.491 92.9943 165.323 91.1208C166.311 88.9507 167.945 87.1619 168.855 84.9494C171.196 81.5717 173.053 77.8943 175.233 74.4166C175.657 73.0546 175.484 71.5413 176.143 70.2368C176.791 68.4632 178.23 67.1799 179.742 66.1387C177.516 65.7301 175.115 65.8058 173.044 66.7864C171.686 67.7882 171.652 69.6224 170.978 71.0328C170.183 72.2526 168.813 73.2635 167.294 73.1515C168.05 72.4523 168.943 71.9287 169.72 71.2568C170.524 70.5697 170.651 69.462 170.954 68.5146C171.295 67.3161 172.106 66.2779 173.14 65.5909Z" fill="#E09139"/>
<path d="M185.41 65.488C187.082 66.0661 189.353 66.1811 190.073 68.1242C189.961 69.3318 188.534 69.6829 187.754 70.4124C188.111 71.1388 189.018 72.1618 188.156 72.87C188.352 71.8803 187.79 70.9057 186.753 70.7453C186.647 70.706 186.435 70.6273 186.332 70.5879C185.903 70.3639 185.488 70.1158 185.077 69.8706C185.198 69.7102 185.44 69.3833 185.564 69.2199C186.647 69.5377 187.977 69.804 188.951 69.0534C189.502 68.7991 189.338 68.1303 189.438 67.643C188.316 66.6472 186.858 66.2961 185.404 66.1508C185.407 65.9844 185.407 65.6544 185.41 65.488Z" fill="#FEEDC1"/>
<path d="M173.044 66.7864C175.115 65.8058 177.516 65.7301 179.742 66.1387C178.23 67.1799 176.791 68.4632 176.143 70.2368C175.484 71.5413 175.657 73.0546 175.233 74.4166C173.053 77.8943 171.196 81.5717 168.855 84.9495C167.945 87.1619 166.311 88.9507 165.323 91.1208C164.491 92.9943 163.015 94.4623 161.642 95.9453C159.595 91.3902 158.352 86.5385 156.694 81.838C157.638 80.9664 158.678 80.2097 159.694 79.4258C161.618 77.8671 163.934 76.8501 165.734 75.1279C166.03 74.91 165.994 74.5135 166.067 74.1957C166.079 74.1079 166.106 73.9324 166.118 73.8446C166.535 73.66 166.941 73.4451 167.294 73.1515C168.813 73.2635 170.183 72.2526 170.978 71.0328C171.652 69.6224 171.686 67.7882 173.044 66.7864Z" fill="#F08916"/>
<path d="M184.763 66.7168C184.974 66.5261 185.189 66.3385 185.404 66.1508C186.858 66.2961 188.316 66.6472 189.438 67.643C189.338 68.1303 189.502 68.7991 188.951 69.0534C187.977 69.804 186.647 69.5377 185.564 69.2199C184.611 68.7235 184.708 67.6309 184.763 66.7168ZM185.482 68.1091C186.003 69.1139 187.27 68.9686 188.207 68.8506C188.61 68.8234 188.876 68.4783 188.885 68.0879C188.238 67.2011 187.1 66.9135 186.102 66.626C185.746 67.0588 185.177 67.4765 185.482 68.1091Z" fill="#E2B06D"/>
<path d="M185.482 68.1091C185.177 67.4765 185.746 67.0588 186.102 66.626C187.1 66.9135 188.238 67.2011 188.885 68.0879C188.876 68.4783 188.61 68.8234 188.207 68.8506C187.27 68.9686 186.003 69.1139 185.482 68.1091Z" fill="#E78820"/>
<path d="M125.568 68.8052C126.799 68.4753 127.595 66.971 128.98 67.3009C129.79 67.5522 130.486 68.1787 130.912 68.9051C131.194 71.0359 131.194 73.2695 130.422 75.3065C129.83 78.0335 128.024 80.4458 125.559 81.7593C125.565 81.5717 125.577 81.1994 125.583 81.0117C125.81 80.8362 126.04 80.6667 126.273 80.5002C129.146 78.4149 130.226 74.6255 130.068 71.2144C130.047 70.8482 130.038 70.4789 130.041 70.1157C130.053 69.8948 130.081 69.4469 130.093 69.2259C129.763 68.8688 129.43 68.5146 129.098 68.1635C127.864 68.5207 126.76 69.1987 125.535 69.574C125.544 69.3803 125.559 68.9989 125.568 68.8052Z" fill="#4E4828"/>
<path d="M125.535 69.574C126.76 69.1987 127.864 68.5207 129.098 68.1636C129.43 68.5147 129.763 68.8688 130.093 69.2259C130.081 69.4469 130.053 69.8948 130.041 70.1158C129.742 70.3155 129.449 70.5183 129.161 70.7272C129.155 70.1521 129.028 69.5952 128.798 69.0716C127.761 69.5195 126.718 69.9463 125.698 70.4305C124.089 71.1872 122.84 72.4887 121.44 73.548C120.506 74.2623 119.263 74.229 118.15 74.338C115.909 74.3925 113.795 75.2429 111.572 75.4427C110.256 75.5184 108.874 76.3719 108.729 77.7793C108.378 80.4882 108.197 83.309 108.992 85.9573C110.063 88.2848 112.168 90.343 114.793 90.688C116.486 90.7758 118.319 90.0948 119.305 88.6632C119.973 87.6977 120.739 86.7957 121.334 85.7848C121.927 84.4834 122.181 82.8399 123.548 82.0832C123.482 83.0275 123.122 83.8962 122.662 84.7104C121.664 86.9592 120.351 89.2473 118.259 90.6335C116.916 91.6505 115.126 91.3327 113.565 91.2449C111.139 90.7243 109.525 88.5815 108.49 86.4719C107.504 83.0154 107.925 79.3532 108.369 75.8422C108.753 75.5607 109.113 75.2187 109.564 75.0432C112.156 74.5408 114.754 74.0807 117.366 73.7145C118.848 73.3483 120.521 73.3301 121.74 72.295C122.792 71.4687 123.823 70.6061 124.942 69.8706C125.133 69.7586 125.329 69.6587 125.535 69.574Z" fill="#E29D50"/>
<path d="M125.698 70.4305C126.718 69.9463 127.761 69.5195 128.798 69.0716C129.028 69.5952 129.155 70.1521 129.161 70.7271C128.417 71.3143 127.434 71.8046 127.235 72.8277C127.955 72.9366 128.523 72.5401 129.016 72.074C129.101 72.6218 129.364 73.1878 129.21 73.7478C128.925 74.1987 128.411 74.4348 128.006 74.7587C128.659 76.1782 128.133 77.7793 127.105 78.8689C126.321 80.0886 124.598 79.8556 123.727 80.9875C124.204 81.0208 124.685 81.0451 125.169 81.0602V81.1934C124.909 81.2085 124.386 81.2448 124.123 81.26C123.929 81.5324 123.742 81.8108 123.548 82.0832C122.181 82.8399 121.927 84.4833 121.334 85.7848C120.739 86.7957 119.973 87.6977 119.305 88.6632C118.319 90.0948 116.486 90.7758 114.793 90.688C112.168 90.343 110.063 88.2848 108.992 85.9573C108.197 83.309 108.378 80.4882 108.729 77.7793C108.874 76.3719 110.256 75.5184 111.572 75.4427C113.795 75.2429 115.909 74.3924 118.15 74.338C119.263 74.229 120.506 74.2623 121.44 73.548C122.84 72.4887 124.089 71.1872 125.698 70.4305Z" fill="#F18916"/>
<path d="M183.946 72.4039C184.224 71.5201 184.515 70.6212 185.077 69.8706C185.488 70.1158 185.903 70.364 186.332 70.5879C185.936 70.7423 185.543 70.8906 185.15 71.0419C185.44 72.7369 184.203 74.2229 184.542 75.8876C185.222 75.8029 185.9 75.6727 186.562 75.479C186.601 75.3035 186.683 74.9494 186.722 74.7738C186.468 74.2714 186.217 73.772 185.972 73.2696C186.541 73.0062 187.112 72.7429 187.684 72.4856C187.484 71.85 187.146 71.275 186.753 70.7453C187.79 70.9057 188.352 71.8803 188.156 72.87C187.835 73.0758 187.515 73.2786 187.194 73.4784C187.182 74.1987 187.454 75.0038 187.125 75.6697C186.269 76.6624 184.865 76.381 183.713 76.4324C183.647 75.1007 183.384 73.7871 182.924 72.5371C183.26 72.4917 183.604 72.4493 183.946 72.4039Z" fill="#DBB47D"/>
<path d="M129.161 70.7271C129.449 70.5183 129.742 70.3155 130.041 70.1158C130.038 70.479 130.047 70.8482 130.068 71.2144C129.712 71.4959 129.364 71.7804 129.016 72.074C128.523 72.5401 127.955 72.9366 127.235 72.8276C127.434 71.8046 128.417 71.3143 129.161 70.7271Z" fill="#A24706"/>
<path d="M186.332 70.5879C186.435 70.6273 186.647 70.706 186.753 70.7453C187.146 71.275 187.484 71.85 187.684 72.4856C187.112 72.7429 186.541 73.0062 185.972 73.2695C186.217 73.772 186.468 74.2714 186.722 74.7738C186.683 74.9493 186.601 75.3035 186.562 75.479C185.9 75.6727 185.222 75.8029 184.542 75.8876C184.203 74.2229 185.44 72.7369 185.15 71.0419C185.543 70.8906 185.936 70.7423 186.332 70.5879Z" fill="#E28B29"/>
<path d="M129.016 72.074C129.364 71.7804 129.712 71.4959 130.068 71.2144C130.226 74.6255 129.146 78.4149 126.273 80.5002C125.913 80.703 125.547 80.8998 125.169 81.0602C124.685 81.045 124.204 81.0208 123.727 80.9875C124.598 79.8555 126.321 80.0886 127.105 78.8689C128.133 77.7793 128.659 76.1782 128.006 74.7586C128.411 74.4348 128.925 74.1987 129.21 73.7477C129.364 73.1878 129.101 72.6218 129.016 72.074Z" fill="#CF833D"/>
<path d="M125.169 81.0602C125.547 80.8998 125.913 80.703 126.273 80.5002C126.04 80.6667 125.81 80.8362 125.583 81.0118C125.577 81.1994 125.565 81.5717 125.559 81.7593C125.574 87.9549 125.571 94.1505 125.565 100.346C125.58 101.363 125.599 102.38 125.58 103.397C125.562 103.99 125.556 104.583 125.571 105.18C125.596 106.085 125.565 106.993 125.496 107.895C124.604 107.946 123.708 107.949 122.813 107.931C122.405 107.922 121.997 107.922 121.591 107.928C119.229 108.019 116.858 107.828 114.502 108.019C113.689 108.963 113.432 110.231 112.875 111.324C112.443 112.138 112.189 113.025 112.047 113.933C110.132 120.71 110.985 127.877 112.262 134.69C112.494 136.285 113.054 137.822 113.148 139.439C113.099 139.702 113.002 140.225 112.954 140.486C111.397 132.925 109.718 125.171 110.807 117.423C111.306 114.593 112.044 111.793 113.281 109.19C113.641 108.524 113.858 107.498 114.763 107.416C118.25 107.229 121.761 107.559 125.239 107.253C125.033 104.798 125.251 102.341 125.181 99.883C125.181 93.6541 125.187 87.4222 125.169 81.1934V81.0602Z" fill="#9C988D"/>
<path d="M149.209 95.3521C149.572 97.0198 150.24 98.6209 150.419 100.331C151.096 100.307 151.774 100.27 152.451 100.228C152.469 100.37 152.503 100.652 152.521 100.794C151.728 100.849 150.942 100.909 150.159 100.994C151.196 101.021 152.236 100.803 153.274 100.921C154.012 101.293 154.647 101.835 155.361 102.256C157.081 103.327 159.093 103.845 161.098 104.039C161.125 103.812 161.176 103.358 161.2 103.131C167.872 111.89 173.476 121.487 177.65 131.69C178.832 134.587 179.975 137.498 180.988 140.462L181.091 140.701C181.375 141.515 181.654 142.332 181.911 143.155C182.268 144.148 182.549 145.165 182.9 146.164C184.545 151.37 186.078 156.612 187.457 161.899C187.593 162.523 187.781 163.137 187.935 163.764C188.147 164.566 188.334 165.377 188.543 166.182C189.027 167.974 189.381 169.802 189.865 171.594C189.946 172.093 190.031 172.599 190.155 173.098C190.536 174.46 190.754 175.864 191.117 177.236C191.386 179.07 192.036 180.865 191.985 182.738C191.891 183.573 192.036 184.409 192.208 185.229C192.544 186.806 192.689 188.422 193.119 189.984C187.971 189.839 182.815 190.017 177.665 189.905C176.128 184.612 174.737 179.272 172.92 174.067C171.737 170.713 170.718 167.302 169.357 164.018C167.243 157.947 164.436 152.084 160.753 146.805C155.466 138.942 148.91 132.06 142.293 125.322C141.679 124.771 141.896 123.906 141.866 123.179C141.942 121.463 141.775 119.741 141.918 118.028C142.934 116.363 144.839 115.401 145.728 113.651C145.858 108.527 145.777 103.391 145.786 98.2607C146.699 97.6251 147.748 97.2438 148.813 96.9411C148.949 96.4114 149.091 95.8848 149.209 95.3521Z" fill="#504332"/>
<path d="M140.203 98.5089C141.706 98.5483 143.209 97.4496 144.667 98.2123C144.972 100.379 144.6 102.556 144.791 104.726C144.86 106.236 144.615 107.743 144.77 109.254C144.779 110.715 145.021 112.247 144.582 113.666C143.629 115.077 142.093 115.958 141.068 117.305C140.862 117.931 140.95 118.612 140.929 119.263C140.986 126.975 140.841 134.687 141.001 142.396C141.273 142.387 141.546 142.38 141.821 142.374C141.978 137.144 141.782 131.911 141.921 126.684C142.268 126.896 142.643 127.093 142.952 127.374C147.165 131.648 151.235 136.076 155.019 140.737C158.46 145.071 161.745 149.575 164.252 154.523C166.647 158.964 168.202 163.776 169.959 168.485C172.266 175.081 174.401 181.739 176.237 188.48C176.334 188.949 176.355 189.43 176.394 189.911C174.713 189.966 173.028 189.923 171.35 189.932C171.374 190.169 171.423 190.638 171.447 190.871C171.906 191.001 172.375 191.146 172.865 191.134C179.67 191.077 186.477 191.14 193.285 191.113C193.355 192.118 193.485 193.116 193.618 194.118C193.618 194.309 193.615 194.687 193.615 194.875C190.031 195.175 186.441 194.718 182.854 194.929C179.664 195.078 176.467 194.817 173.276 195.044L172.904 195.057C172.445 193.577 171.731 192.19 170.99 190.837C169.511 187.435 167.939 184.076 166.566 180.625C165.05 176.836 163.454 173.062 162.338 169.13C161.769 167.272 161.155 165.383 161.158 163.416C160.027 160.692 157.898 158.603 155.808 156.6C152.869 153.673 149.509 151.215 146.548 148.31C144.912 146.839 143.206 145.41 141.896 143.627C141.694 143.615 141.497 143.606 141.301 143.603L140.853 143.585C140.711 152.123 140.744 160.662 140.669 169.2C140.735 170.816 140.493 172.417 140.412 174.03C140.405 179.327 140.342 184.627 140.354 189.926C133.988 189.932 127.622 189.929 121.256 189.932C120.209 186.155 119.931 182.217 119.302 178.358C119.021 175.314 118.824 172.263 118.616 169.209C118.6 167.018 118.758 164.781 119.511 162.705C119.998 161.279 120.454 159.814 120.454 158.292C120.557 156.131 119.901 154.042 119.353 151.981C118.377 148.885 117.512 145.758 116.616 142.638C115.718 139.439 115.189 136.155 114.696 132.874C114.575 129.941 113.979 127.041 114.043 124.099C114.061 120.458 113.928 116.814 114.1 113.176C116.051 112.459 118.032 111.757 119.78 110.607C120.896 109.85 122.136 109.151 122.813 107.931C123.708 107.949 124.604 107.946 125.496 107.895C125.565 106.993 125.596 106.085 125.571 105.18C126.491 103.809 127.779 102.559 128.1 100.882C127.918 100.888 127.555 100.903 127.377 100.909C126.854 101.793 126.273 102.64 125.58 103.397C125.599 102.38 125.58 101.363 125.565 100.346C126.805 100.691 128.082 100.319 129.337 100.289C131.308 100.207 133.105 99.2202 135.074 99.1415C136.807 99.081 138.458 98.4242 140.203 98.5089Z" fill="#504332"/>
<path d="M118.473 190.816C118.936 191.046 119.447 191.134 119.964 191.122C126.757 191.125 133.549 191.137 140.342 191.113C140.318 192.366 140.303 193.619 140.294 194.872C139.453 194.802 138.612 194.811 137.774 194.875C136.45 194.981 135.134 194.69 133.813 194.824C132.016 195.002 130.208 194.911 128.405 194.945C125.838 194.948 123.267 195.038 120.708 194.76C120.606 195.069 120.506 195.38 120.412 195.698C120.288 196.152 120.188 196.618 120.082 197.081C120.01 197.169 119.868 197.342 119.798 197.426C119.744 196.727 119.741 196.031 119.777 195.335L119.396 195.365C119.447 195.214 119.55 194.911 119.601 194.76L119.172 194.82C119.175 194.578 119.184 194.088 119.19 193.843L118.873 193.858C118.882 193.619 118.9 193.144 118.912 192.905L118.576 193.029C118.549 192.369 118.495 191.715 118.473 191.058C118.473 190.998 118.473 190.877 118.473 190.816Z" fill="#504332"/>
<path d="M145.154 97.9006C145.362 98.0216 145.571 98.1397 145.786 98.2607C145.777 103.391 145.858 108.527 145.728 113.651C144.839 115.401 142.934 116.363 141.918 118.028C141.775 119.741 141.942 121.463 141.866 123.179C141.896 123.906 141.679 124.771 142.293 125.322C148.91 132.06 155.466 138.942 160.753 146.805C164.436 152.084 167.243 157.947 169.357 164.018C170.718 167.302 171.737 170.713 172.92 174.067C174.737 179.273 176.128 184.612 177.665 189.905C182.815 190.017 187.971 189.839 193.119 189.984C193.161 190.265 193.246 190.831 193.285 191.113C186.477 191.14 179.67 191.077 172.865 191.134C172.375 191.146 171.906 191.001 171.447 190.871C171.423 190.638 171.374 190.169 171.35 189.932C173.028 189.923 174.713 189.966 176.394 189.911C176.355 189.43 176.334 188.949 176.237 188.48C174.401 181.739 172.266 175.081 169.959 168.485C168.202 163.776 166.647 158.964 164.252 154.523C161.745 149.575 158.46 145.071 155.019 140.737C151.235 136.076 147.165 131.648 142.952 127.374C142.643 127.093 142.268 126.896 141.921 126.684C141.782 131.911 141.978 137.144 141.821 142.374C141.546 142.38 141.273 142.387 141.001 142.396C140.841 134.687 140.986 126.975 140.929 119.263C140.95 118.612 140.862 117.931 141.068 117.305C142.093 115.958 143.629 115.077 144.582 113.666C145.021 112.247 144.779 110.715 144.77 109.254C144.615 107.743 144.86 106.236 144.791 104.726C144.6 102.556 144.972 100.379 144.667 98.2123C144.788 98.1336 145.033 97.9793 145.154 97.9006Z" fill="#1D140B"/>
<path d="M152.354 99.8043C154.127 99.6863 155.76 98.8782 157.532 98.7753C158.215 99.7196 159.029 100.552 159.77 101.448C160.088 101.829 160.302 102.28 160.496 102.737C158.267 102.973 156.159 101.799 154.477 100.44C153.927 99.8891 153.126 100.189 152.451 100.228C152.427 100.122 152.379 99.9103 152.354 99.8043Z" fill="#4D4338"/>
<path d="M152.451 100.228C153.126 100.189 153.927 99.8891 154.477 100.44C156.159 101.799 158.267 102.973 160.496 102.737C160.58 102.731 160.744 102.722 160.825 102.716C160.919 102.819 161.107 103.028 161.2 103.131C161.176 103.358 161.125 103.812 161.098 104.039C159.093 103.845 157.081 103.327 155.361 102.256C154.647 101.835 154.012 101.293 153.274 100.921C152.236 100.803 151.196 101.021 150.159 100.994C150.942 100.909 151.728 100.849 152.521 100.794C152.503 100.652 152.469 100.37 152.451 100.228Z" fill="#1B1106"/>
<path d="M127.377 100.909C127.555 100.903 127.918 100.888 128.1 100.882C127.779 102.559 126.491 103.809 125.571 105.18C125.556 104.583 125.562 103.99 125.58 103.397C126.273 102.64 126.854 101.793 127.377 100.909Z" fill="#130E04"/>
<path d="M112.875 111.324C113.432 110.231 113.689 108.963 114.502 108.019C116.858 107.828 119.229 108.019 121.591 107.928C119.136 109.823 116.414 111.778 113.199 111.92C113.015 112.205 112.736 112.48 112.803 112.855C113.048 116.905 112.633 120.97 113.072 125.01C113.102 129.081 113.631 133.131 114.309 137.141C115.386 143.888 118.162 150.216 119.375 156.927C120.001 160.265 117.472 163.149 117.66 166.452C117.663 169.233 117.578 172.021 117.787 174.796C118.283 178.785 118.746 182.78 119.493 186.733C119.677 187.75 119.783 188.779 119.834 189.811C119.378 189.926 118.924 190.041 118.47 190.162C118.47 190.326 118.473 190.653 118.473 190.816C118.473 190.877 118.473 190.998 118.473 191.058C118.368 191.134 118.156 191.291 118.053 191.367C117.802 189.179 117.013 187.102 116.659 184.932C116.541 184.43 116.444 183.924 116.365 183.419C115.993 181.621 115.721 179.799 115.537 177.974C115.479 174.545 115.343 171.107 115.625 167.683C115.888 166.57 116.299 165.489 116.477 164.36C116.629 161.942 116.541 159.52 116.499 157.099C116.514 155.35 115.882 153.685 115.77 151.945C115.437 150.861 115.325 149.726 115.053 148.628C114.805 147.729 114.651 146.808 114.451 145.9C114.013 144.088 113.619 142.265 113.205 140.449C113.184 140.11 113.166 139.775 113.148 139.439C113.054 137.822 112.494 136.285 112.262 134.69C110.985 127.877 110.132 120.71 112.047 113.933C112.189 113.025 112.443 112.138 112.875 111.324Z" fill="#4D4436"/>
<path d="M121.591 107.928C121.997 107.922 122.405 107.922 122.813 107.931C122.136 109.151 120.896 109.85 119.78 110.606C118.032 111.757 116.051 112.459 114.1 113.176C113.928 116.814 114.061 120.458 114.043 124.099C113.979 127.041 114.575 129.941 114.696 132.874C115.189 136.155 115.718 139.439 116.616 142.638C117.512 145.758 118.377 148.885 119.353 151.981C119.901 154.042 120.557 156.131 120.454 158.292C120.454 159.814 119.998 161.279 119.511 162.705C118.758 164.781 118.6 167.018 118.616 169.209C118.824 172.263 119.021 175.314 119.302 178.358C119.931 182.217 120.209 186.155 121.256 189.932C127.622 189.929 133.988 189.932 140.354 189.926C140.351 190.223 140.345 190.816 140.342 191.113C133.549 191.137 126.757 191.125 119.964 191.122C119.447 191.134 118.936 191.046 118.473 190.816C118.473 190.653 118.47 190.326 118.47 190.162C118.924 190.041 119.378 189.926 119.834 189.811C119.783 188.779 119.677 187.75 119.493 186.733C118.746 182.78 118.283 178.785 117.787 174.796C117.578 172.021 117.663 169.233 117.66 166.452C117.472 163.149 120.001 160.265 119.375 156.927C118.162 150.216 115.386 143.888 114.309 137.141C113.631 133.131 113.102 129.081 113.072 125.01C112.633 120.97 113.048 116.905 112.803 112.855C112.736 112.48 113.015 112.205 113.199 111.92C116.414 111.778 119.136 109.823 121.591 107.928Z" fill="#22180C"/>
<path d="M140.853 143.585L141.301 143.603C141.337 150.519 141.234 157.435 141.225 164.351C141.168 165.861 140.953 167.366 141.025 168.882C140.977 177.559 140.968 186.24 140.889 194.917C140.871 196.086 141.177 197.224 141.385 198.368C140.638 197.702 140.578 196.636 140.318 195.732C140.312 195.517 140.3 195.087 140.294 194.872C140.303 193.619 140.318 192.366 140.342 191.113C140.345 190.816 140.351 190.223 140.354 189.926C140.342 184.627 140.405 179.327 140.412 174.03C140.493 172.417 140.735 170.816 140.669 169.2C140.744 160.662 140.711 152.123 140.853 143.585Z" fill="#7C7A6C"/>
<path d="M191.985 182.738C192.078 182.696 192.266 182.611 192.363 182.569C192.614 184.07 192.647 185.613 193.206 187.054C193.194 188.083 193.333 189.106 193.733 190.063C193.838 191.415 193.708 192.768 193.618 194.118C193.485 193.116 193.355 192.118 193.285 191.113C193.246 190.831 193.161 190.265 193.119 189.984C192.689 188.422 192.544 186.806 192.208 185.229C192.036 184.409 191.891 183.573 191.985 182.738Z" fill="#7D7770"/>
<path d="M193.733 190.063C193.972 191.231 193.826 192.435 193.869 193.619L194.189 193.516C194.213 194.285 194.238 195.06 194.259 195.834C194.265 195.986 194.277 196.285 194.283 196.434C194.086 196.24 193.89 196.049 193.696 195.862C188.776 195.971 183.855 195.88 178.938 195.922C177.238 196.007 175.539 195.662 173.851 195.913C174.011 197.414 174.64 198.903 174.356 200.423C174.268 200.48 174.093 200.598 174.005 200.656C173.83 198.776 173.21 196.948 173.276 195.044C176.467 194.817 179.664 195.078 182.854 194.929C186.441 194.718 190.031 195.175 193.615 194.875C193.615 194.687 193.618 194.309 193.618 194.118C193.708 192.768 193.838 191.415 193.733 190.063Z" fill="#575048"/>
<path d="M120.708 194.76C123.267 195.038 125.838 194.948 128.405 194.945C130.208 194.911 132.016 195.002 133.813 194.824C135.134 194.69 136.45 194.981 137.774 194.875C138.612 194.811 139.453 194.802 140.294 194.872C140.3 195.087 140.312 195.517 140.318 195.732C137.672 196.001 135.013 195.877 132.358 195.895C128.378 195.807 124.38 196.11 120.412 195.698C120.506 195.38 120.606 195.069 120.708 194.76Z" fill="#565046"/>
<path d="M120.082 197.081C120.188 196.618 120.288 196.152 120.412 195.698C124.38 196.11 128.378 195.807 132.358 195.895C135.013 195.877 137.671 196.001 140.318 195.732C140.578 196.637 140.638 197.702 141.385 198.368C141.428 198.413 141.506 198.507 141.546 198.552L141.527 198.804C141.479 199.043 141.382 199.518 141.334 199.757C138.328 199.839 135.273 199.409 132.303 199.99C132.328 200.393 132.373 200.795 132.433 201.201C133.059 201.643 133.828 201.821 134.553 202.051C134.56 202.29 134.572 202.762 134.578 202.999C137.502 203.014 140.43 203.056 143.357 202.974C143.363 202.738 143.378 202.269 143.387 202.033C140.442 202.012 137.496 201.997 134.553 202.051C137.024 201.779 139.51 201.966 141.99 201.936C142.477 201.87 143.115 201.93 143.321 201.364C144.307 202.251 145.396 203.017 146.499 203.749C147.062 204.14 147.8 204.37 148.111 205.032C146.787 205.039 145.474 205.259 144.153 205.323C140.944 205.393 137.726 205.193 134.523 205.405C131.52 206.062 129.303 208.425 127.516 210.783C127.038 211.5 126.56 212.218 126.04 212.905C124.985 212.914 123.932 212.902 122.883 212.85C122.904 211.8 122.901 210.747 122.813 209.7C122.716 211.043 122.713 212.396 122.677 213.746C124.682 213.904 126.696 213.813 128.708 213.819C137.076 213.843 145.447 213.834 153.818 213.81C153.791 213.577 153.733 213.111 153.706 212.875C145.474 212.941 137.245 212.862 129.016 212.914C128.49 212.929 127.988 212.772 127.492 212.626C127.734 212.263 127.985 211.909 128.245 211.561C129.222 210.477 130.108 209.306 131.175 208.307C132.488 207.375 134.015 206.528 135.672 206.549C140.218 206.537 144.763 206.558 149.312 206.54C149.312 206.24 149.309 205.638 149.309 205.338C150.065 205.925 150.567 206.755 151.214 207.451C151.459 207.747 151.919 207.938 151.837 208.419L152.122 208.371C152.176 208.74 152.303 209.082 152.5 209.397L152.856 209.264C152.811 209.415 152.72 209.718 152.675 209.869L153.098 209.893C153.068 210.048 153.008 210.356 152.98 210.511H153.464C153.413 210.656 153.316 210.947 153.268 211.092L153.646 211.083C153.652 211.331 153.667 211.827 153.673 212.076L154.118 212C154.06 212.148 153.948 212.442 153.891 212.59L154.272 212.629C154.217 212.896 154.108 213.428 154.057 213.695C154.78 213.91 154.326 214.83 154.459 215.369C144.972 215.366 135.485 215.341 125.995 215.362C125.1 215.369 124.204 215.326 123.312 215.272C123.255 215.444 123.146 215.786 123.091 215.959C123.019 215.98 122.874 216.022 122.801 216.04C122.707 215.417 122.647 214.778 122.444 214.185C121.972 213.335 122.248 212.33 122.205 211.41L121.948 211.413C121.985 210.723 121.924 210.045 121.649 209.412C121.655 208.144 121.289 206.915 121.319 205.65L121.011 205.653C120.99 204.842 120.965 204.031 120.977 203.226L120.714 203.256C120.714 202.714 120.714 202.178 120.717 201.64L120.4 201.806C120.394 201.068 120.376 200.329 120.382 199.594L120.131 199.618C120.125 198.77 120.055 197.926 120.082 197.081ZM130.958 198.114C130.979 198.495 131.003 198.879 131.024 199.267C133.075 199.327 135.128 199.239 137.179 199.273C138.171 199.261 139.184 199.361 140.154 199.088C140.133 198.758 140.112 198.431 140.091 198.107C137.045 198.071 134.003 198.044 130.958 198.114Z" fill="#333333"/>
<path d="M173.851 195.913C175.539 195.662 177.238 196.007 178.938 195.922C183.855 195.88 188.776 195.971 193.696 195.862C193.89 196.049 194.086 196.24 194.283 196.434C194.461 197.693 195.03 198.84 195.617 199.951C192.656 200.002 189.695 199.917 186.734 199.945C186.61 200.144 186.359 200.544 186.232 200.744C186.701 201.258 187.318 201.525 188.02 201.382C190.472 201.104 192.94 201.273 195.402 201.18C195.523 200.992 195.768 200.614 195.889 200.426C196.303 200.841 196.696 201.276 197.071 201.733C194.162 202.054 191.238 201.842 188.322 201.97L188.361 202.302C188.392 202.602 188.425 202.902 188.461 203.204C191.207 203.207 193.953 203.213 196.696 203.22L197.077 203.204C197.262 202.878 197.443 202.551 197.622 202.224C198.744 203.204 200.044 203.946 201.236 204.836C199.318 205.589 197.241 205.296 195.236 205.338C193.019 205.371 190.799 205.269 188.585 205.384C187.515 205.423 186.562 205.977 185.685 206.543C183.541 207.987 181.865 210.005 180.426 212.127C179.646 213.41 177.937 212.769 176.742 212.632C176.654 213.026 176.567 213.416 176.497 213.819C176.491 214.349 176.524 214.881 176.555 215.417L176.431 215.983C176.37 215.359 176.343 214.73 176.337 214.106L176.071 214.143C176.05 213.298 176.044 212.457 176.065 211.619L175.747 211.785C175.744 211.14 175.723 210.499 175.732 209.86L175.454 209.933C175.466 209.179 175.451 208.425 175.463 207.675L175.148 207.872C175.151 207.411 175.16 206.954 175.17 206.5L174.873 206.609C174.87 205.756 174.849 204.902 174.855 204.052L174.556 204.227C174.746 202.932 174.005 201.7 174.356 200.423C174.64 198.903 174.011 197.414 173.851 195.913ZM184.938 198.12L185.119 198.365C185.101 198.543 185.062 198.894 185.041 199.073C187.986 198.991 190.935 199.134 193.875 198.976L194.011 199.082C193.962 198.761 193.92 198.443 193.875 198.126C190.899 198.026 187.914 198.035 184.938 198.12Z" fill="#333333"/>
<path d="M183.689 209.669C185.056 208.283 186.665 206.903 188.649 206.591C193.684 206.385 198.738 206.721 203.767 206.44C205.548 208.174 206.831 210.335 207.705 212.654C206.761 212.563 205.848 212.884 204.913 212.893C197.126 212.838 189.335 212.929 181.548 212.859C181.944 211.612 182.809 210.608 183.689 209.669Z" fill="#333333"/>
<path d="M194.259 195.834C194.368 195.868 194.592 195.937 194.703 195.971C194.997 197.308 195.275 198.695 196.095 199.83C197.425 201.957 199.666 203.201 201.723 204.518C202.47 204.96 203.323 205.269 203.888 205.968C206.619 208.667 208.594 212.257 208.96 216.113L208.543 215.941C208.458 215.774 208.289 215.444 208.204 215.278C208.152 214.709 208.125 214.14 208.071 213.577C207.968 213.259 207.847 212.95 207.705 212.654C206.831 210.335 205.549 208.174 203.767 206.44C203.099 205.647 202.083 205.368 201.236 204.836C200.044 203.946 198.744 203.204 197.622 202.224C197.443 202.551 197.262 202.877 197.077 203.204L196.696 203.219C196.687 202.977 196.663 202.493 196.654 202.248C193.89 202.03 191.126 202.315 188.362 202.302L188.322 201.969C191.238 201.842 194.162 202.054 197.071 201.733C196.696 201.276 196.303 200.841 195.889 200.426C195.768 200.614 195.523 200.992 195.402 201.179C192.94 201.273 190.472 201.104 188.02 201.382C187.318 201.525 186.701 201.258 186.232 200.744C186.359 200.544 186.61 200.144 186.734 199.945C189.695 199.917 192.656 200.002 195.617 199.951C195.03 198.84 194.461 197.693 194.283 196.434C194.277 196.285 194.265 195.986 194.259 195.834ZM186.94 200.323C186.958 200.474 186.992 200.777 187.01 200.928C188.945 200.992 190.881 200.877 192.816 200.901C193.642 200.901 194.483 200.98 195.29 200.744C195.021 200.102 194.268 200.341 193.748 200.302C191.477 200.368 189.205 200.19 186.94 200.323Z" fill="#909190"/>
<path d="M130.958 198.114C134.003 198.044 137.045 198.071 140.091 198.107C140.112 198.431 140.133 198.758 140.154 199.088C139.184 199.361 138.171 199.261 137.179 199.273C135.128 199.239 133.075 199.327 131.024 199.267C131.003 198.879 130.979 198.495 130.958 198.114ZM131.402 198.48C131.484 198.598 131.653 198.834 131.735 198.952C133.952 198.976 136.171 198.891 138.391 198.949C138.836 198.834 139.84 199.197 139.743 198.404C136.964 198.419 134.175 198.289 131.402 198.48Z" fill="#9C9C9C"/>
<path d="M184.938 198.12C187.914 198.035 190.899 198.026 193.875 198.126C193.92 198.443 193.963 198.761 194.011 199.082L193.875 198.976C193.636 198.785 193.397 198.595 193.158 198.41C190.479 198.374 187.796 198.468 185.119 198.365L184.938 198.12Z" fill="#949494"/>
<path d="M131.402 198.48C134.175 198.289 136.964 198.419 139.743 198.404C139.84 199.197 138.836 198.834 138.391 198.949C136.171 198.891 133.952 198.976 131.735 198.952C131.653 198.834 131.484 198.598 131.402 198.48Z" fill="#E5E5E5"/>
<path d="M141.527 198.804C141.89 199.394 142.29 199.96 142.695 200.526C142.389 200.674 142.084 200.825 141.785 200.98C141.733 200.783 141.63 200.39 141.579 200.19C138.627 200.181 135.672 200.117 132.724 200.244C132.751 200.807 133.011 201.089 133.507 201.092C136.202 201.077 138.899 201.098 141.594 201.065C141.715 201.361 141.851 201.646 141.99 201.936C139.51 201.966 137.024 201.779 134.553 202.051C133.828 201.821 133.059 201.643 132.433 201.201C132.373 200.795 132.328 200.393 132.303 199.99C135.273 199.409 138.328 199.839 141.334 199.757C141.382 199.518 141.479 199.043 141.527 198.804Z" fill="#4C4C4C"/>
<path d="M132.724 200.244C135.672 200.117 138.627 200.181 141.579 200.19C141.582 200.411 141.591 200.847 141.594 201.064C138.899 201.098 136.202 201.077 133.507 201.092C133.011 201.089 132.751 200.807 132.724 200.244Z" fill="#D3D3D3"/>
<path d="M141.579 200.19C141.63 200.39 141.733 200.783 141.785 200.98C142.084 200.825 142.389 200.674 142.695 200.526C142.898 200.807 143.106 201.083 143.321 201.364C143.115 201.93 142.477 201.87 141.99 201.936C141.851 201.646 141.715 201.361 141.594 201.064C141.591 200.847 141.582 200.411 141.579 200.19Z" fill="#363B37"/>
<path d="M186.94 200.323C189.205 200.19 191.477 200.368 193.748 200.302C194.268 200.341 195.021 200.102 195.29 200.744C194.483 200.98 193.642 200.901 192.816 200.901C190.881 200.877 188.945 200.992 187.01 200.928C186.992 200.777 186.958 200.474 186.94 200.323Z" fill="#C9C9C9"/>
<path d="M134.553 202.051C137.496 201.997 140.442 202.012 143.387 202.033C143.378 202.269 143.363 202.738 143.357 202.974C140.43 203.056 137.502 203.014 134.578 202.999C134.572 202.762 134.56 202.29 134.553 202.051Z" fill="#C0C1C0"/>
<path d="M188.362 202.302C191.126 202.315 193.89 202.03 196.654 202.248C196.663 202.493 196.687 202.977 196.696 203.219C193.953 203.213 191.207 203.207 188.461 203.204C188.425 202.902 188.392 202.602 188.362 202.302Z" fill="#CDCDCD"/>
<path d="M144.153 205.323C145.474 205.259 146.787 205.039 148.111 205.032C148.29 205.032 148.641 205.036 148.819 205.036L148.813 205.408C148.937 205.39 149.185 205.356 149.309 205.338C149.309 205.638 149.312 206.24 149.312 206.54C144.763 206.558 140.218 206.537 135.672 206.549C134.015 206.528 132.488 207.375 131.175 208.307C130.108 209.306 129.222 210.477 128.245 211.561C128 211.298 127.758 211.04 127.516 210.783C129.303 208.425 131.52 206.062 134.523 205.405C137.726 205.193 140.944 205.393 144.153 205.323Z" fill="#0E0E0E"/>
<path d="M154.272 212.629C154.659 213.71 154.595 214.869 154.656 215.998C144.137 215.992 133.613 216.043 123.091 215.959C123.146 215.786 123.255 215.444 123.312 215.272C124.204 215.326 125.1 215.369 125.995 215.362C135.485 215.341 144.972 215.365 154.459 215.369C154.326 214.83 154.78 213.91 154.057 213.695C154.109 213.428 154.217 212.896 154.272 212.629Z" fill="#0E0E0E"/>
<path d="M177.353 215.344C187.636 215.293 197.921 215.426 208.204 215.278C208.289 215.444 208.458 215.774 208.543 215.941C203.81 216.089 199.064 215.962 194.328 216.001C188.507 215.968 182.682 216.074 176.863 215.95C176.987 215.798 177.232 215.496 177.353 215.344Z" fill="#0E0E0E"/>
<path d="M195.236 205.338C197.241 205.296 199.318 205.589 201.236 204.836C202.083 205.368 203.099 205.647 203.767 206.44C198.738 206.721 193.684 206.385 188.649 206.591C186.665 206.903 185.056 208.283 183.689 209.669C182.809 210.608 181.944 211.612 181.548 212.859C189.335 212.929 197.126 212.838 204.913 212.893C205.848 212.884 206.761 212.563 207.705 212.654C207.847 212.95 207.968 213.259 208.071 213.577C207.907 213.84 207.75 214.109 207.587 214.379C207.151 214.085 206.689 213.786 206.141 213.852C196.261 213.819 186.378 213.892 176.497 213.819C176.567 213.416 176.655 213.026 176.742 212.632C177.937 212.769 179.646 213.41 180.426 212.127C181.865 210.005 183.541 207.987 185.685 206.543C186.562 205.977 187.515 205.423 188.585 205.384C190.799 205.269 193.019 205.371 195.236 205.338Z" fill="#0B0B0B"/>
<path d="M122.813 209.7C122.901 210.747 122.904 211.8 122.883 212.85C123.932 212.902 124.985 212.914 126.04 212.905C126.56 212.218 127.038 211.5 127.516 210.783C127.758 211.04 128 211.298 128.245 211.561C127.985 211.909 127.734 212.263 127.492 212.626C127.988 212.772 128.49 212.929 129.016 212.914C137.245 212.862 145.474 212.941 153.706 212.875C153.733 213.111 153.791 213.577 153.818 213.81C145.447 213.834 137.076 213.843 128.708 213.819C126.696 213.813 124.682 213.904 122.677 213.746C122.713 212.396 122.716 211.043 122.813 209.7Z" fill="#070707"/>
<path d="M176.497 213.819C186.378 213.891 196.261 213.819 206.141 213.852C206.689 213.786 207.151 214.085 207.587 214.379C207.75 214.109 207.907 213.84 208.071 213.577C208.125 214.14 208.152 214.709 208.204 215.278C197.921 215.426 187.636 215.293 177.353 215.344C177.232 215.496 176.987 215.798 176.863 215.95L176.709 216.14L176.555 215.417C176.524 214.881 176.491 214.349 176.497 213.819Z" fill="#363638"/>
</g>
<defs>
<clipPath id="clip0_12_73">
<rect width="288.421" height="227" fill="white" transform="translate(0.789474)"/>
</clipPath>
</defs>
</svg>
